<?xml version="1.0" encoding="utf-8"?>
<!-- Generator: Adobe Illustrator 24.3.0, SVG Export Plug-In . SVG Version: 6.00 Build 0)  -->
<svg version="1.1" id="Layer_1" xmlns="http://www.w3.org/2000/svg" xmlns:xlink="http://www.w3.org/1999/xlink" x="0px" y="0px"
	 viewBox="0 0 474.8 474.8" style="enable-background:new 0 0 474.8 474.8;" xml:space="preserve">
<style type="text/css">
	.st0{fill:#FFFFFF;}
	.st1{opacity:0.8;fill:#FFFFFF;enable-background:new    ;}
	.st2{fill:none;stroke:#263238;stroke-linecap:round;stroke-linejoin:round;}
	.st3{fill:#263238;}
	.st4{opacity:0.3;fill:#263238;enable-background:new    ;}
	.st5{fill:#FFFFFF;stroke:#263238;stroke-linecap:round;stroke-linejoin:round;}
	.st6{fill:#263238;stroke:#263238;stroke-linecap:round;stroke-linejoin:round;}
	.st7{fill:#90CAFF;stroke:#263238;stroke-linecap:round;stroke-linejoin:round;}
	.st8{fill:#263238;stroke:#263238;stroke-linejoin:round;}
	.st9{fill:#C4C4C4;stroke:#263238;stroke-linecap:round;stroke-linejoin:round;}
	.st10{fill:none;stroke:#263238;stroke-width:2;stroke-linecap:round;stroke-linejoin:round;}
	.st11{fill:#EDEDED;stroke:#263238;stroke-linecap:round;stroke-linejoin:round;}
	.st12{fill:#CCCCCC;stroke:#263238;stroke-linecap:round;stroke-linejoin:round;}
</style>
<g id="Layer_1_1_">
	<g>
		<g id="freepik--background-simple--inject-2">
			<path class="st0" d="M442.4,275.9c-14.2,38-43.2,79.1-83.9,91.4c-61.7,18.4-69,68.2-179.5,63.5c-16.1-0.6-32.1-2.9-47.7-6.9
				c-7.6-1.9-15.1-4.5-22.4-7.4c-64.4-26.1-98.1-83.6-101-143.7c-3.7-79.1,51.6-116.8,87.5-138.9S174.5,26.1,283.1,29.8
				c16.6,0.5,33,2.9,49.1,7.1c36.6,9.8,73.6,31.7,95.2,63.8c1.6,2.4,3.2,4.8,4.7,7.4C460.8,156.8,461.7,224.1,442.4,275.9z"/>
			<path class="st1" d="M442.4,275.9c-14.2,38-43.2,79.1-83.9,91.4c-61.7,18.4-69,68.2-179.5,63.5c-16.1-0.6-32.1-2.9-47.7-6.9
				c-7.6-1.9-15.1-4.5-22.4-7.4c-64.4-26.1-98.1-83.6-101-143.7c-3.7-79.1,51.6-116.8,87.5-138.9S174.5,26.1,283.1,29.8
				c16.6,0.5,33,2.9,49.1,7.1c36.6,9.8,73.6,31.7,95.2,63.8c1.6,2.4,3.2,4.8,4.7,7.4C460.8,156.8,461.7,224.1,442.4,275.9z"/>
		</g>
		<g id="freepik--Floor--inject-2">
			<line class="st2" x1="471.9" y1="416.5" x2="6.4" y2="416.5"/>
		</g>
		<g id="freepik--Plant--inject-2">
			<path class="st3" d="M103.1,303.1c0,0,2.4-5.8,2.6-6.1c1.3-4.5,1-13.9-3.4-16.8c-2.9-1.8-6.8-0.8-8.5,2.1
				c-0.2,0.2-0.2,0.3-0.3,0.6c-1.6,3.2-0.6,7.7,0.8,10.8C96,297.3,103.1,303.1,103.1,303.1z"/>
			<path class="st3" d="M11.6,289.4c3.5,2.1,12.6,3.1,12.6,3.1s-1.1-6.1-1.3-6.6c-1.5-4.4-6.9-12.1-12.1-12.1
				c-3.4,0.2-6.1,2.9-6,6.4c0,0.2,0,0.5,0,0.6C5.3,284.6,8.7,287.6,11.6,289.4z"/>
			<path class="st3" d="M11.4,316c3.7,1.1,12.1-0.3,12.9-0.3c0.8,4.8,1.8,9.5,3.2,14.2c0.8,2.7,1.6,5.5,2.6,8.2
				c-0.6-1.1-1.1-2.3-1.3-2.4c-2.6-3.9-9.8-9.8-14.8-8.4c-3.2,1-5,4.5-4,7.7c0,0.2,0.2,0.5,0.2,0.6c1.3,3.4,5.3,5.5,8.7,6.4
				c3.4,1,10.6,0,12.4-0.3c0.3,1,0.6,2.1,1.1,3.1c1.8,5,3.5,9.8,5.2,14.8c0.5,1.8,1,3.4,1.6,5.2c-0.5-1-1-1.9-1.1-2.1
				c-2.6-3.9-9.8-9.8-14.8-8.4c-3.2,1-5,4.5-4,7.7c0,0.2,0.2,0.5,0.2,0.6c1.3,3.4,5.3,5.5,8.7,6.4c3.4,1,9.8,0,12.1-0.3
				c0.5,1.8,1,3.5,1.3,5.3c0.2,1.1,0.5,2.3,0.6,3.5c0.2,1.3,0.3,2.4,0.5,3.5c0.3,2.3,0.5,4.7,0.6,6.8c0.2,1.6,0.3,3.1,0.3,4.5
				c-0.5-1.8-1.6-5.2-1.8-5.3c-1.9-4.2-8.2-11.3-13.4-10.6c-3.4,0.5-5.6,3.7-5.2,6.9c0,0.2,0,0.5,0.2,0.6c0.8,3.5,4.5,6.3,7.6,7.7
				c3.5,1.5,11.6,1.5,12.7,1.5c0.2,2.4,0.3,4.8,0.5,7.1c0.3,6.3,0.3,11.6,0.3,15.8h3.4c0-4.4-0.3-9.7-0.6-16
				c-0.2-2.6-0.3-5.2-0.6-7.9c2.6-0.6,5-1.5,7.4-2.4c2.3,3.2,8.7,7.4,9.5,7.9c-1.3,2.1-2.4,4.2-3.5,6.1c-2.9,4.7-5.5,8.9-7.7,12.2h4
				c1.9-3.1,4-6.6,6.3-10.6c1.3-2.1,2.6-4.5,3.9-6.9c1,0.3,8.7,2.9,12.6,2.6c3.4-0.3,7.7-1.8,9.7-4.8c1.9-2.9,1.1-6.6-1.6-8.5
				c-0.2-0.2-0.5-0.3-0.6-0.3c-4.7-2.3-12.9,2.3-16.1,5.6c-0.2,0.2-1.9,2.6-3.1,4c0.5-1,1-1.9,1.6-2.9c1.1-2.1,2.1-4,3.1-6.3
				c0.5-1.1,1-2.3,1.5-3.2c0.5-1.1,1-2.3,1.5-3.5c1-2.7,1.9-5.5,2.7-8.4c1.8,1,8.2,4,11.6,4.4c3.5,0.2,7.9-0.5,10.3-3.4
				c2.3-2.6,2.1-6.4-0.3-8.7c-0.2-0.2-0.3-0.3-0.5-0.5c-4.4-2.9-13.1,0.3-16.8,3.2c-0.2,0.2-2.6,2.6-4,3.9c0.5-1.8,1-3.4,1.5-5.2
				c1.3-5,2.4-10.2,3.5-15.3c0.3-1.6,0.8-3.1,1.1-4.7c0.6,0.3,8.1,4.2,12.1,4.5c3.5,0.2,7.9-0.5,10.3-3.4c2.3-2.6,2.1-6.4-0.5-8.7
				c-0.2-0.2-0.3-0.3-0.5-0.5c-4.4-2.9-13.1,0.3-16.8,3.2c-0.3,0.2-3.7,3.5-4.5,4.5c0.8-3.4,1.6-6.9,2.6-10.2
				c1.3-4.5,2.9-8.9,4.7-13.2c0.3,0.2,8.1,4.4,12.1,4.5c3.5,0.2,7.9-0.5,10.3-3.4c2.3-2.6,2.1-6.4-0.3-8.7c-0.2-0.2-0.3-0.3-0.5-0.5
				c-4.4-2.9-13.1,0.3-16.8,3.2c-0.3,0.2-2.9,2.7-4.2,4l-0.3-0.2c1.9-4.4,4.4-8.4,7.1-12.2c1.5-2.1,2.9-4.2,4.5-6
				c1.3,1,7.7,5,11.3,5.6s7.9,0.3,10.6-2.1c2.6-2.3,2.7-6.1,0.5-8.7c-0.2-0.2-0.3-0.3-0.5-0.5c-4-3.4-13.1-1.1-17.1,1.3
				c-0.2,0.2-2.3,1.8-3.7,2.9c0.6-0.8,1.5-1.8,2.1-2.6c2.6-2.9,5.2-5.5,7.4-7.7c1.3-1.3,2.6-2.4,3.7-3.4c1.8,0.2,9.2,1,12.6-0.2
				c3.4-1.1,7.3-3.4,8.4-6.8c1.1-3.2-0.5-6.8-3.5-7.9c-0.2,0-0.3-0.2-0.6-0.2c-5-1.1-12.1,5-14.5,9c-0.2,0.3-2.9,6.1-2.7,6.1h0.2
				c-1.1,1-2.3,2.1-3.5,3.2c-2.3,2.3-5,4.7-7.6,7.7c-2.9,3.1-5.6,6.4-8.1,9.8c-2.9,3.9-5.3,7.9-7.4,12.2v0.2
				c0.2-1.5,0.6-5.8,0.6-6.1c0-4.7-2.7-13.7-7.7-15.1c-3.2-1-6.6,1-7.6,4.2c0,0.2-0.2,0.5-0.2,0.6c-0.8,3.5,1.5,7.6,3.7,10.2
				c2.6,2.9,10.3,6.4,11,6.8c-2.1,4.4-3.7,9-5.2,13.5c-0.8,2.7-1.6,5.5-2.4,8.2c0.2-1.3,0.3-2.4,0.3-2.6c0-4.7-2.7-13.7-7.7-15.1
				c-3.2-1-6.6,1-7.6,4.2c0,0.2-0.2,0.5-0.2,0.6c-0.8,3.5,1.5,7.6,3.7,10.2c2.3,2.6,8.9,5.8,10.6,6.6c-0.3,1.1-0.5,2.1-0.8,3.2
				c-1.3,5.2-2.6,10.2-4,15.1c-0.5,1.8-1,3.4-1.6,5.2c0.2-1.1,0.2-2.1,0.2-2.3c0-4.7-2.7-13.7-7.7-15.1c-3.2-1-6.6,1-7.6,4.2
				c0,0.2-0.2,0.3-0.2,0.5c-0.8,3.5,1.5,7.6,3.7,10.2c2.3,2.6,8.2,5.5,10.3,6.4c-0.6,1.8-1.1,3.5-1.9,5.2c-0.5,1.1-0.8,2.3-1.5,3.4
				l-1.5,3.2c-1.1,2.1-2.1,4.2-3.2,6.1c-0.8,1.3-1.5,2.6-2.3,4c0.5-1.8,1.5-5.2,1.5-5.5c0.5-4-0.2-8.2-1.8-11.9c0-0.5,0.2-1,0.2-1.3
				c0-3.4-2.7-6.1-6.1-6.1c-0.2,0-0.5,0-0.6,0c-5.2,0.6-9.5,9-10.3,13.7c0,0.3-0.3,3.2-0.3,5.2c-0.2-1.1-0.2-2.3-0.3-3.4
				c-0.3-2.3-0.5-4.5-0.8-6.9c-0.2-1.1-0.3-2.4-0.6-3.5c-0.2-1.1-0.5-2.4-0.8-3.7c-0.6-2.9-1.5-5.6-2.3-8.5c1.9-0.2,9-1.1,12.1-2.9
				c3.1-1.8,6.3-4.8,6.8-8.4c0.5-3.4-1.8-6.4-5.2-7.1c-0.2,0-0.5,0-0.6,0c-5.2-0.2-10.6,7.6-12.2,11.9c-0.2,0.3-0.8,3.5-1.1,5.3
				c-0.5-1.8-1.1-3.4-1.6-5.2c-1.8-5-3.5-9.8-5.5-14.8c-0.6-1.5-1.1-2.9-1.6-4.5c0.6,0,9.2-1,12.4-2.9c2.9-1.8,6.3-4.8,6.8-8.4
				c0.5-3.4-1.8-6.4-5.2-7.1c-0.2,0-0.5,0-0.6,0c-5.2-0.2-10.6,7.6-12.2,11.9c-0.2,0.3-1.1,5-1.3,6.3c-1.3-3.4-2.4-6.6-3.4-10
				c-1.5-4.5-2.6-9-3.4-13.7c0.3,0,9.2-0.8,12.6-2.9c2.9-1.8,6.3-4.8,6.8-8.4c0.5-3.4-1.8-6.4-5.2-7.1c-0.2,0-0.5,0-0.6,0
				c-5.2-0.2-10.6,7.6-12.2,11.9c-0.2,0.3-1,3.9-1.3,5.6h-0.3c-0.6-4.7-1-9.3-0.8-14.2c0-2.6,0.2-5.2,0.5-7.6c1.6,0,9.2,0,12.6-1.5
				c3.4-1.5,6.8-4,7.7-7.7c1-3.2-1-6.6-4.4-7.6c-0.2,0-0.5-0.2-0.6-0.2c-5.2-0.6-11.6,6.3-13.5,10.5c-0.2,0.2-1,2.7-1.6,4.5
				c0.2-1.1,0.2-2.3,0.3-3.2c0.5-3.9,1.1-7.4,1.9-10.6c0.3-1.8,0.8-3.4,1.1-4.8c1.6-0.8,8.2-4.4,10.3-7.1c2.3-2.7,4.2-6.8,3.2-10.3
				c-0.8-3.4-4-5.5-7.4-4.7c-0.2,0-0.3,0.2-0.6,0.2c-4.8,1.8-7.3,11-7.1,15.5c0,0.5,1,6.6,1.1,6.6h0.2c-0.3,1.5-0.8,2.9-1.1,4.7
				c-0.6,3.1-1.5,6.6-2.1,10.6c-0.6,4.2-1.1,8.4-1.3,12.7c-0.2,4.8,0,9.5,0.5,14.3v0.2c-0.6-1.5-2.6-5.2-2.7-5.5
				c-2.6-3.9-9.8-9.8-14.8-8.4c-3.2,1-5,4.5-4,7.7c0,0.2,0.2,0.5,0.2,0.6C4,312.9,8,315.2,11.4,316z"/>
			<path class="st4" d="M11.6,289.4c3.5,2.1,12.6,3.1,12.6,3.1s-1.1-6.1-1.3-6.6c-1.5-4.4-6.9-12.1-12.1-12.1
				c-3.4,0.2-6.1,2.9-6,6.4c0,0.2,0,0.5,0,0.6C5.3,284.6,8.7,287.6,11.6,289.4z"/>
			<path class="st4" d="M103.1,303.1c0,0,2.4-5.8,2.6-6.1c1.3-4.5,1-13.9-3.4-16.8c-2.9-1.8-6.8-0.8-8.5,2.1
				c-0.2,0.2-0.2,0.3-0.3,0.6c-1.6,3.2-0.6,7.7,0.8,10.8C96,297.3,103.1,303.1,103.1,303.1z"/>
			<path class="st4" d="M11.4,316c3.7,1.1,12.1-0.3,12.9-0.3c0.8,4.8,1.8,9.5,3.2,14.2c0.8,2.7,1.6,5.5,2.6,8.2
				c-0.6-1.1-1.1-2.3-1.3-2.4c-2.6-3.9-9.8-9.8-14.8-8.4c-3.2,1-5,4.5-4,7.7c0,0.2,0.2,0.5,0.2,0.6c1.3,3.4,5.3,5.5,8.7,6.4
				c3.4,1,10.6,0,12.4-0.3c0.3,1,0.6,2.1,1.1,3.1c1.8,5,3.5,9.8,5.2,14.8c0.5,1.8,1,3.4,1.6,5.2c-0.5-1-1-1.9-1.1-2.1
				c-2.6-3.9-9.8-9.8-14.8-8.4c-3.2,1-5,4.5-4,7.7c0,0.2,0.2,0.5,0.2,0.6c1.3,3.4,5.3,5.5,8.7,6.4c3.4,1,9.8,0,12.1-0.3
				c0.5,1.8,1,3.5,1.3,5.3c0.2,1.1,0.5,2.3,0.6,3.5c0.2,1.3,0.3,2.4,0.5,3.5c0.3,2.3,0.5,4.7,0.6,6.8c0.2,1.6,0.3,3.1,0.3,4.5
				c-0.5-1.8-1.6-5.2-1.8-5.3c-1.9-4.2-8.2-11.3-13.4-10.6c-3.4,0.5-5.6,3.7-5.2,6.9c0,0.2,0,0.5,0.2,0.6c0.8,3.5,4.5,6.3,7.6,7.7
				c3.5,1.5,11.6,1.5,12.7,1.5c0.2,2.4,0.3,4.8,0.5,7.1c0.3,6.3,0.3,11.6,0.3,15.8h3.4c0-4.4-0.3-9.7-0.6-16
				c-0.2-2.6-0.3-5.2-0.6-7.9c2.6-0.6,5-1.5,7.4-2.4c2.3,3.2,8.7,7.4,9.5,7.9c-1.3,2.1-2.4,4.2-3.5,6.1c-2.9,4.7-5.5,8.9-7.7,12.2h4
				c1.9-3.1,4-6.6,6.3-10.6c1.3-2.1,2.6-4.5,3.9-6.9c1,0.3,8.7,2.9,12.6,2.6c3.4-0.3,7.7-1.8,9.7-4.8c1.9-2.9,1.1-6.6-1.6-8.5
				c-0.2-0.2-0.5-0.3-0.6-0.3c-4.7-2.3-12.9,2.3-16.1,5.6c-0.2,0.2-1.9,2.6-3.1,4c0.5-1,1-1.9,1.6-2.9c1.1-2.1,2.1-4,3.1-6.3
				c0.5-1.1,1-2.3,1.5-3.2c0.5-1.1,1-2.3,1.5-3.5c1-2.7,1.9-5.5,2.7-8.4c1.8,1,8.2,4,11.6,4.4c3.5,0.2,7.9-0.5,10.3-3.4
				c2.3-2.6,2.1-6.4-0.3-8.7c-0.2-0.2-0.3-0.3-0.5-0.5c-4.4-2.9-13.1,0.3-16.8,3.2c-0.2,0.2-2.6,2.6-4,3.9c0.5-1.8,1-3.4,1.5-5.2
				c1.3-5,2.4-10.2,3.5-15.3c0.3-1.6,0.8-3.1,1.1-4.7c0.6,0.3,8.1,4.2,12.1,4.5c3.5,0.2,7.9-0.5,10.3-3.4c2.3-2.6,2.1-6.4-0.5-8.7
				c-0.2-0.2-0.3-0.3-0.5-0.5c-4.4-2.9-13.1,0.3-16.8,3.2c-0.3,0.2-3.7,3.5-4.5,4.5c0.8-3.4,1.6-6.9,2.6-10.2
				c1.3-4.5,2.9-8.9,4.7-13.2c0.3,0.2,8.1,4.4,12.1,4.5c3.5,0.2,7.9-0.5,10.3-3.4c2.3-2.6,2.1-6.4-0.3-8.7c-0.2-0.2-0.3-0.3-0.5-0.5
				c-4.4-2.9-13.1,0.3-16.8,3.2c-0.3,0.2-2.9,2.7-4.2,4l-0.3-0.2c1.9-4.4,4.4-8.4,7.1-12.2c1.5-2.1,2.9-4.2,4.5-6
				c1.3,1,7.7,5,11.3,5.6s7.9,0.3,10.6-2.1c2.6-2.3,2.7-6.1,0.5-8.7c-0.2-0.2-0.3-0.3-0.5-0.5c-4-3.4-13.1-1.1-17.1,1.3
				c-0.2,0.2-2.3,1.8-3.7,2.9c0.6-0.8,1.5-1.8,2.1-2.6c2.6-2.9,5.2-5.5,7.4-7.7c1.3-1.3,2.6-2.4,3.7-3.4c1.8,0.2,9.2,1,12.6-0.2
				c3.4-1.1,7.3-3.4,8.4-6.8c1.1-3.2-0.5-6.8-3.5-7.9c-0.2,0-0.3-0.2-0.6-0.2c-5-1.1-12.1,5-14.5,9c-0.2,0.3-2.9,6.1-2.7,6.1h0.2
				c-1.1,1-2.3,2.1-3.5,3.2c-2.3,2.3-5,4.7-7.6,7.7c-2.9,3.1-5.6,6.4-8.1,9.8c-2.9,3.9-5.3,7.9-7.4,12.2v0.2
				c0.2-1.5,0.6-5.8,0.6-6.1c0-4.7-2.7-13.7-7.7-15.1c-3.2-1-6.6,1-7.6,4.2c0,0.2-0.2,0.5-0.2,0.6c-0.8,3.5,1.5,7.6,3.7,10.2
				c2.6,2.9,10.3,6.4,11,6.8c-2.1,4.4-3.7,9-5.2,13.5c-0.8,2.7-1.6,5.5-2.4,8.2c0.2-1.3,0.3-2.4,0.3-2.6c0-4.7-2.7-13.7-7.7-15.1
				c-3.2-1-6.6,1-7.6,4.2c0,0.2-0.2,0.5-0.2,0.6c-0.8,3.5,1.5,7.6,3.7,10.2c2.3,2.6,8.9,5.8,10.6,6.6c-0.3,1.1-0.5,2.1-0.8,3.2
				c-1.3,5.2-2.6,10.2-4,15.1c-0.5,1.8-1,3.4-1.6,5.2c0.2-1.1,0.2-2.1,0.2-2.3c0-4.7-2.7-13.7-7.7-15.1c-3.2-1-6.6,1-7.6,4.2
				c0,0.2-0.2,0.3-0.2,0.5c-0.8,3.5,1.5,7.6,3.7,10.2c2.3,2.6,8.2,5.5,10.3,6.4c-0.6,1.8-1.1,3.5-1.9,5.2c-0.5,1.1-0.8,2.3-1.5,3.4
				l-1.5,3.2c-1.1,2.1-2.1,4.2-3.2,6.1c-0.8,1.3-1.5,2.6-2.3,4c0.5-1.8,1.5-5.2,1.5-5.5c0.5-4-0.2-8.2-1.8-11.9c0-0.5,0.2-1,0.2-1.3
				c0-3.4-2.7-6.1-6.1-6.1c-0.2,0-0.5,0-0.6,0c-5.2,0.6-9.5,9-10.3,13.7c0,0.3-0.3,3.2-0.3,5.2c-0.2-1.1-0.2-2.3-0.3-3.4
				c-0.3-2.3-0.5-4.5-0.8-6.9c-0.2-1.1-0.3-2.4-0.6-3.5c-0.2-1.1-0.5-2.4-0.8-3.7c-0.6-2.9-1.5-5.6-2.3-8.5c1.9-0.2,9-1.1,12.1-2.9
				c3.1-1.8,6.3-4.8,6.8-8.4c0.5-3.4-1.8-6.4-5.2-7.1c-0.2,0-0.5,0-0.6,0c-5.2-0.2-10.6,7.6-12.2,11.9c-0.2,0.3-0.8,3.5-1.1,5.3
				c-0.5-1.8-1.1-3.4-1.6-5.2c-1.8-5-3.5-9.8-5.5-14.8c-0.6-1.5-1.1-2.9-1.6-4.5c0.6,0,9.2-1,12.4-2.9c2.9-1.8,6.3-4.8,6.8-8.4
				c0.5-3.4-1.8-6.4-5.2-7.1c-0.2,0-0.5,0-0.6,0c-5.2-0.2-10.6,7.6-12.2,11.9c-0.2,0.3-1.1,5-1.3,6.3c-1.3-3.4-2.4-6.6-3.4-10
				c-1.5-4.5-2.6-9-3.4-13.7c0.3,0,9.2-0.8,12.6-2.9c2.9-1.8,6.3-4.8,6.8-8.4c0.5-3.4-1.8-6.4-5.2-7.1c-0.2,0-0.5,0-0.6,0
				c-5.2-0.2-10.6,7.6-12.2,11.9c-0.2,0.3-1,3.9-1.3,5.6h-0.3c-0.6-4.7-1-9.3-0.8-14.2c0-2.6,0.2-5.2,0.5-7.6c1.6,0,9.2,0,12.6-1.5
				c3.4-1.5,6.8-4,7.7-7.7c1-3.2-1-6.6-4.4-7.6c-0.2,0-0.5-0.2-0.6-0.2c-5.2-0.6-11.6,6.3-13.5,10.5c-0.2,0.2-1,2.7-1.6,4.5
				c0.2-1.1,0.2-2.3,0.3-3.2c0.5-3.9,1.1-7.4,1.9-10.6c0.3-1.8,0.8-3.4,1.1-4.8c1.6-0.8,8.2-4.4,10.3-7.1c2.3-2.7,4.2-6.8,3.2-10.3
				c-0.8-3.4-4-5.5-7.4-4.7c-0.2,0-0.3,0.2-0.6,0.2c-4.8,1.8-7.3,11-7.1,15.5c0,0.5,1,6.6,1.1,6.6h0.2c-0.3,1.5-0.8,2.9-1.1,4.7
				c-0.6,3.1-1.5,6.6-2.1,10.6c-0.6,4.2-1.1,8.4-1.3,12.7c-0.2,4.8,0,9.5,0.5,14.3v0.2c-0.6-1.5-2.6-5.2-2.7-5.5
				c-2.6-3.9-9.8-9.8-14.8-8.4c-3.2,1-5,4.5-4,7.7c0,0.2,0.2,0.5,0.2,0.6C4,312.9,8,315.2,11.4,316z"/>
		</g>
		<g id="freepik--Coins--inject-2">
			<path class="st5" d="M92.6,418v8.5c0,1,15.1,1.9,34,1.9c18.7,0,34-0.8,34-1.9V418H92.6z"/>
			<ellipse class="st5" cx="126.6" cy="418" rx="34" ry="1.9"/>
			<ellipse class="st5" cx="126.6" cy="417.6" rx="26.1" ry="1.1"/>
			<line class="st2" x1="157.1" y1="418.9" x2="157.1" y2="425.5"/>
			<line class="st2" x1="152.2" y1="419.6" x2="152.2" y2="426.5"/>
			<line class="st2" x1="145" y1="419.7" x2="145" y2="425.2"/>
			<line class="st2" x1="135.5" y1="423.3" x2="135.5" y2="428"/>
			<line class="st2" x1="125.2" y1="428.4" x2="125.2" y2="422.5"/>
			<line class="st2" x1="94.7" y1="418.9" x2="94.7" y2="421.8"/>
			<line class="st2" x1="98.7" y1="427.1" x2="98.7" y2="423.8"/>
			<line class="st2" x1="114.5" y1="427.6" x2="114.5" y2="423.4"/>
			<path class="st5" d="M94.1,409.4v8.5c0,1,15.1,1.9,34,1.9s34-0.8,34-1.9v-8.5H94.1z"/>
			<ellipse class="st5" cx="128.1" cy="409.4" rx="34" ry="1.9"/>
			<ellipse class="st5" cx="128.1" cy="409.3" rx="26.1" ry="1.1"/>
			<line class="st2" x1="158.7" y1="410.4" x2="158.7" y2="417"/>
			<line class="st2" x1="153.8" y1="411" x2="153.8" y2="418"/>
			<line class="st2" x1="146.6" y1="411.2" x2="146.6" y2="416.7"/>
			<line class="st2" x1="136.9" y1="414.7" x2="136.9" y2="419.4"/>
			<line class="st2" x1="126.8" y1="419.9" x2="126.8" y2="414.1"/>
			<line class="st2" x1="96.3" y1="410.4" x2="96.3" y2="413.3"/>
			<line class="st2" x1="100.2" y1="418.8" x2="100.2" y2="415.2"/>
			<line class="st2" x1="116" y1="419.1" x2="116" y2="414.9"/>
			<path class="st5" d="M94.4,400.9v8.5c0,1,15.1,1.9,34,1.9s34-0.8,34-1.9v-8.5H94.4z"/>
			<ellipse class="st5" cx="128.4" cy="400.9" rx="34" ry="1.9"/>
			<ellipse class="st5" cx="128.4" cy="400.7" rx="26.1" ry="1.1"/>
			<line class="st2" x1="158.8" y1="401.9" x2="158.8" y2="408.5"/>
			<line class="st2" x1="154" y1="402.7" x2="154" y2="409.6"/>
			<line class="st2" x1="146.7" y1="402.8" x2="146.7" y2="408.1"/>
			<line class="st2" x1="137.2" y1="406.2" x2="137.2" y2="410.9"/>
			<line class="st2" x1="127.1" y1="411.4" x2="127.1" y2="405.6"/>
			<line class="st2" x1="96.5" y1="401.9" x2="96.5" y2="404.9"/>
			<line class="st2" x1="100.5" y1="410.2" x2="100.5" y2="406.7"/>
			<line class="st2" x1="116.3" y1="410.6" x2="116.3" y2="406.4"/>
			<path class="st5" d="M94.1,392.5v8.5c0,1,15.1,1.9,34,1.9s34-0.8,34-1.9v-8.5H94.1z"/>
			<ellipse class="st5" cx="128.1" cy="392.5" rx="34" ry="1.9"/>
			<path class="st5" d="M154.2,392.2c0,0.6-11.6,1.1-26.1,1.1c-14.5,0-26.1-0.5-26.1-1.1c0-0.6,11.8-1.1,26.1-1.1
				C142.6,391.1,154.2,391.5,154.2,392.2z"/>
			<line class="st2" x1="158.7" y1="393.5" x2="158.7" y2="399.9"/>
			<line class="st2" x1="153.8" y1="394.1" x2="153.8" y2="401"/>
			<line class="st2" x1="146.6" y1="394.3" x2="146.6" y2="399.6"/>
			<line class="st2" x1="136.9" y1="397.7" x2="136.9" y2="402.5"/>
			<line class="st2" x1="126.8" y1="403" x2="126.8" y2="397"/>
			<line class="st2" x1="96.3" y1="393.5" x2="96.3" y2="396.4"/>
			<line class="st2" x1="100.2" y1="401.7" x2="100.2" y2="398.3"/>
			<line class="st2" x1="116" y1="402" x2="116" y2="398"/>
			<path class="st5" d="M94.7,384v8.5c0,1,15.1,1.9,34,1.9c18.7,0,34-0.8,34-1.9V384H94.7z"/>
			<ellipse class="st5" cx="128.5" cy="384" rx="34" ry="1.9"/>
			<path class="st5" d="M154.6,383.6c0,0.6-11.6,1.3-26.1,1.3c-14.3,0-26.1-0.5-26.1-1.3c0-0.6,11.8-1.1,26.1-1.1
				C143,382.5,154.6,383,154.6,383.6z"/>
			<line class="st2" x1="159.2" y1="384.9" x2="159.2" y2="391.5"/>
			<line class="st2" x1="154.3" y1="385.6" x2="154.3" y2="392.5"/>
			<line class="st2" x1="147.1" y1="385.7" x2="147.1" y2="391.2"/>
			<line class="st2" x1="137.6" y1="389.3" x2="137.6" y2="394"/>
			<line class="st2" x1="127.3" y1="394.4" x2="127.3" y2="388.5"/>
			<line class="st2" x1="96.8" y1="384.9" x2="96.8" y2="387.8"/>
			<line class="st2" x1="100.8" y1="393.2" x2="100.8" y2="389.8"/>
			<line class="st2" x1="116.6" y1="393.6" x2="116.6" y2="389.4"/>
			<path class="st5" d="M92.6,375.4v8.5c0,1.1,15.1,1.9,34,1.9c18.7,0,34-0.8,34-1.9v-8.5H92.6z"/>
			<ellipse class="st5" cx="126.6" cy="375.4" rx="34" ry="1.9"/>
			<path class="st5" d="M152.5,375.3c0,0.6-11.6,1.1-26.1,1.1c-14.3,0-26.1-0.5-26.1-1.1c0-0.6,11.8-1.1,26.1-1.1
				C140.9,374,152.5,374.5,152.5,375.3z"/>
			<line class="st2" x1="157.1" y1="376.4" x2="157.1" y2="383"/>
			<line class="st2" x1="152.2" y1="377" x2="152.2" y2="384"/>
			<line class="st2" x1="145" y1="377.2" x2="145" y2="382.7"/>
			<line class="st2" x1="135.5" y1="380.7" x2="135.5" y2="385.4"/>
			<line class="st2" x1="125.2" y1="385.9" x2="125.2" y2="380.1"/>
			<line class="st2" x1="94.7" y1="376.4" x2="94.7" y2="379.3"/>
			<line class="st2" x1="98.7" y1="384.8" x2="98.7" y2="381.2"/>
			<line class="st2" x1="114.5" y1="385.1" x2="114.5" y2="380.9"/>
			<path class="st5" d="M91.5,366.9v8.5c0,1,15.1,1.9,34,1.9s34-0.8,34-1.9v-8.5H91.5z"/>
			<ellipse class="st5" cx="125.5" cy="366.9" rx="34" ry="1.9"/>
			<path class="st5" d="M151.6,366.7c0,0.6-11.6,1.1-26.1,1.1c-14.3,0-26.1-0.5-26.1-1.1c0-0.6,11.8-1.3,26.1-1.3
				C140,365.4,151.6,366.1,151.6,366.7z"/>
			<line class="st2" x1="156.1" y1="367.9" x2="156.1" y2="374.5"/>
			<line class="st2" x1="151.3" y1="368.7" x2="151.3" y2="375.6"/>
			<line class="st2" x1="144" y1="368.8" x2="144" y2="374.1"/>
			<line class="st2" x1="134.3" y1="372.2" x2="134.3" y2="376.9"/>
			<line class="st2" x1="124.2" y1="377.4" x2="124.2" y2="371.6"/>
			<line class="st2" x1="93.7" y1="367.9" x2="93.7" y2="370.9"/>
			<line class="st2" x1="97.8" y1="376.2" x2="97.8" y2="372.7"/>
			<line class="st2" x1="113.4" y1="376.6" x2="113.4" y2="372.4"/>
			<path class="st5" d="M89.7,358.5v8.5c0,1.1,15.1,1.9,34,1.9s34-0.8,34-1.9v-8.5H89.7z"/>
			<ellipse class="st5" cx="123.7" cy="358.5" rx="34" ry="1.9"/>
			<path class="st5" d="M149.8,358.2c0,0.6-11.6,1.1-26.1,1.1c-14.3,0-26.1-0.5-26.1-1.1s11.8-1.1,26.1-1.1
				C138,357.1,149.8,357.5,149.8,358.2z"/>
			<line class="st2" x1="154.3" y1="359.5" x2="154.3" y2="365.9"/>
			<line class="st2" x1="149.5" y1="360.1" x2="149.5" y2="367"/>
			<line class="st2" x1="142.1" y1="360.3" x2="142.1" y2="365.6"/>
			<line class="st2" x1="132.6" y1="363.7" x2="132.6" y2="368.3"/>
			<line class="st2" x1="122.4" y1="369" x2="122.4" y2="363"/>
			<line class="st2" x1="92" y1="359.5" x2="92" y2="362.4"/>
			<line class="st2" x1="95.8" y1="367.7" x2="95.8" y2="364.3"/>
			<line class="st2" x1="111.6" y1="368" x2="111.6" y2="364"/>
			<path class="st5" d="M92.6,350v8.5c0,1,15.1,1.9,34,1.9c18.7,0,34-0.8,34-1.9V350H92.6z"/>
			<ellipse class="st5" cx="126.6" cy="350" rx="34" ry="1.9"/>
			<path class="st5" d="M152.5,349.6c0,0.6-11.6,1.1-26.1,1.1c-14.3,0-26.1-0.5-26.1-1.1c0-0.6,11.8-1.3,26.1-1.3
				C140.9,348.5,152.5,349,152.5,349.6z"/>
			<line class="st2" x1="157.1" y1="350.9" x2="157.1" y2="357.5"/>
			<line class="st2" x1="152.2" y1="351.6" x2="152.2" y2="358.5"/>
			<line class="st2" x1="145" y1="351.7" x2="145" y2="357.2"/>
			<line class="st2" x1="135.5" y1="355.3" x2="135.5" y2="360"/>
			<line class="st2" x1="125.2" y1="360.4" x2="125.2" y2="354.5"/>
			<line class="st2" x1="94.7" y1="350.9" x2="94.7" y2="353.8"/>
			<line class="st2" x1="98.7" y1="359.2" x2="98.7" y2="355.8"/>
			<line class="st2" x1="114.5" y1="359.6" x2="114.5" y2="355.4"/>
			<path class="st5" d="M90.2,341.4v8.5c0,1,15.1,1.9,34,1.9s34-0.8,34-1.9v-8.5H90.2z"/>
			<path class="st5" d="M158.2,341.4c0,1-15.1,1.9-34,1.9c-18.7,0-34-0.8-34-1.9c0-1,15.1-1.9,34-1.9S158.2,340.5,158.2,341.4z"/>
			<path class="st5" d="M150.3,341.3c0,0.6-11.6,1.1-26.1,1.1s-26.1-0.5-26.1-1.1c0-0.6,11.8-1.1,26.1-1.1
				C138.7,340,150.3,340.5,150.3,341.3z"/>
			<line class="st2" x1="154.8" y1="342.4" x2="154.8" y2="349"/>
			<line class="st2" x1="150" y1="343" x2="150" y2="350"/>
			<line class="st2" x1="142.7" y1="343.2" x2="142.7" y2="348.7"/>
			<line class="st2" x1="133.1" y1="346.7" x2="133.1" y2="351.4"/>
			<line class="st2" x1="122.9" y1="351.9" x2="122.9" y2="346.1"/>
			<line class="st2" x1="92.5" y1="342.4" x2="92.5" y2="345.3"/>
			<line class="st2" x1="96.5" y1="350.8" x2="96.5" y2="347.2"/>
			<line class="st2" x1="112.1" y1="351.1" x2="112.1" y2="346.9"/>
			<path class="st5" d="M92.6,332.9v8.5c0,1,15.1,1.9,34,1.9c18.7,0,34-0.8,34-1.9v-8.5H92.6z"/>
			<path class="st5" d="M160.4,332.9c0,1-15.1,1.9-34,1.9c-18.7,0-34-0.8-34-1.9c0-1.1,15.1-1.9,34-1.9
				C145.3,331.1,160.4,331.9,160.4,332.9z"/>
			<path class="st5" d="M152.5,332.7c0,0.6-11.6,1.1-26.1,1.1c-14.3,0-26.1-0.5-26.1-1.1c0-0.6,11.8-1.3,26.1-1.3
				C140.9,331.4,152.5,332.1,152.5,332.7z"/>
			<line class="st2" x1="157.1" y1="333.9" x2="157.1" y2="340.5"/>
			<line class="st2" x1="152.2" y1="334.7" x2="152.2" y2="341.6"/>
			<line class="st2" x1="145" y1="334.8" x2="145" y2="340.1"/>
			<line class="st2" x1="135.5" y1="338.2" x2="135.5" y2="342.9"/>
			<line class="st2" x1="125.2" y1="343.4" x2="125.2" y2="337.6"/>
			<line class="st2" x1="94.7" y1="333.9" x2="94.7" y2="336.9"/>
			<line class="st2" x1="98.7" y1="342.2" x2="98.7" y2="338.7"/>
			<line class="st2" x1="114.5" y1="342.6" x2="114.5" y2="338.4"/>
			<path class="st5" d="M95.2,324.5v8.5c0,1,15.1,1.9,34,1.9s34-0.8,34-1.9v-8.5H95.2z"/>
			<ellipse class="st5" cx="129.2" cy="324.5" rx="34" ry="1.9"/>
			<path class="st5" d="M155.1,324.2c0,0.6-11.6,1.3-26.1,1.3s-26.1-0.5-26.1-1.3c0-0.8,11.8-1.1,26.1-1.1S155.1,323.5,155.1,324.2z
				"/>
			<line class="st2" x1="159.6" y1="325.5" x2="159.6" y2="331.9"/>
			<line class="st2" x1="154.8" y1="326.1" x2="154.8" y2="333.1"/>
			<line class="st2" x1="147.6" y1="326.3" x2="147.6" y2="331.6"/>
			<line class="st2" x1="138" y1="329.7" x2="138" y2="334.3"/>
			<line class="st2" x1="127.7" y1="335" x2="127.7" y2="329"/>
			<line class="st2" x1="97.3" y1="325.5" x2="97.3" y2="328.4"/>
			<line class="st2" x1="101.3" y1="333.7" x2="101.3" y2="330.3"/>
			<line class="st2" x1="117.1" y1="334" x2="117.1" y2="329.8"/>
			<path class="st5" d="M95.2,316.5v8.5c0,1,15.1,1.9,34,1.9s34-0.8,34-1.9v-8.5H95.2z"/>
			<path class="st5" d="M163,316.5c0,1-15.1,1.9-34,1.9s-34-0.8-34-1.9c0-1,15.1-1.9,34-1.9S163,315.5,163,316.5z"/>
			<path class="st5" d="M155.1,316.3c0,0.6-11.6,1.1-26.1,1.1s-26.1-0.5-26.1-1.1c0-0.6,11.8-1.3,26.1-1.3S155.1,315.5,155.1,316.3z
				"/>
			<line class="st2" x1="159.6" y1="317.4" x2="159.6" y2="324"/>
			<line class="st2" x1="154.8" y1="318.1" x2="154.8" y2="325"/>
			<line class="st2" x1="147.6" y1="318.2" x2="147.6" y2="323.7"/>
			<line class="st2" x1="138" y1="321.8" x2="138" y2="326.4"/>
			<line class="st2" x1="127.7" y1="326.9" x2="127.7" y2="321.1"/>
			<line class="st2" x1="97.3" y1="317.4" x2="97.3" y2="320.3"/>
			<line class="st2" x1="101.3" y1="325.8" x2="101.3" y2="322.3"/>
			<line class="st2" x1="117.1" y1="326.1" x2="117.1" y2="321.9"/>
			<path class="st5" d="M92,308.4v8.5c0,1,15.1,1.9,34,1.9c18.7,0,34-0.8,34-1.9v-8.5H92z"/>
			<path class="st5" d="M159.8,308.4c0,1-15.1,1.9-34,1.9s-34-0.8-34-1.9c0-1.1,15.1-1.9,34-1.9
				C144.7,306.6,159.8,307.4,159.8,308.4z"/>
			<path class="st5" d="M151.9,308.2c0,0.6-11.8,1.3-26.1,1.3s-26.1-0.5-26.1-1.3c0-0.8,11.6-1.1,26.1-1.1
				C140.3,307.1,151.9,307.6,151.9,308.2z"/>
			<line class="st2" x1="156.4" y1="309.5" x2="156.4" y2="316"/>
			<line class="st2" x1="151.6" y1="310.2" x2="151.6" y2="317.1"/>
			<line class="st2" x1="144.3" y1="310.3" x2="144.3" y2="315.7"/>
			<line class="st2" x1="134.8" y1="313.7" x2="134.8" y2="318.4"/>
			<line class="st2" x1="124.5" y1="319" x2="124.5" y2="313.1"/>
			<line class="st2" x1="94.1" y1="309.5" x2="94.1" y2="312.4"/>
			<line class="st2" x1="98.1" y1="317.7" x2="98.1" y2="314.4"/>
			<line class="st2" x1="113.9" y1="318.1" x2="113.9" y2="313.9"/>
			<path class="st5" d="M87.9,300.5v8.5c0,1,15.1,1.9,34,1.9c18.7,0,34-0.8,34-1.9v-8.5H87.9z"/>
			<path class="st5" d="M155.8,300.5c0,1-15.1,1.9-34,1.9c-18.7,0-33.8-1-33.8-1.9c0-1,15.1-1.9,34-1.9
				C140.6,298.6,155.8,299.5,155.8,300.5z"/>
			<path class="st5" d="M147.9,300.3c0,0.6-11.6,1.1-26.1,1.1s-26.1-0.5-26.1-1.1c0-0.6,11.8-1.3,26.1-1.3
				C136.3,299.1,147.9,299.5,147.9,300.3z"/>
			<line class="st2" x1="152.4" y1="301.5" x2="152.4" y2="308.1"/>
			<line class="st2" x1="147.6" y1="302.1" x2="147.6" y2="309"/>
			<line class="st2" x1="140.3" y1="302.3" x2="140.3" y2="307.8"/>
			<line class="st2" x1="130.8" y1="305.8" x2="130.8" y2="310.5"/>
			<line class="st2" x1="120.5" y1="311" x2="120.5" y2="305.2"/>
			<line class="st2" x1="90" y1="301.5" x2="90" y2="304.4"/>
			<line class="st2" x1="94.1" y1="309.9" x2="94.1" y2="306.3"/>
			<line class="st2" x1="109.9" y1="310.2" x2="109.9" y2="306"/>
			<path class="st5" d="M31.9,420.7v8.5c0,1,15.1,1.9,34,1.9c18.7,0,34-1,34-1.9v-8.5H31.9z"/>
			<ellipse class="st5" cx="65.9" cy="420.7" rx="34" ry="1.9"/>
			<path class="st5" d="M92,420.5c0,0.6-11.8,1.1-26.1,1.1s-26.1-0.5-26.1-1.1c0-0.6,11.6-1.3,26.1-1.3S92,419.9,92,420.5z"/>
			<line class="st2" x1="96.5" y1="421.7" x2="96.5" y2="428.3"/>
			<line class="st2" x1="91.5" y1="422.5" x2="91.5" y2="429.4"/>
			<line class="st2" x1="84.2" y1="422.6" x2="84.2" y2="428"/>
			<line class="st2" x1="74.7" y1="426" x2="74.7" y2="430.7"/>
			<line class="st2" x1="64.6" y1="431.2" x2="64.6" y2="425.4"/>
			<line class="st2" x1="34" y1="421.7" x2="34" y2="424.6"/>
			<line class="st2" x1="38" y1="430" x2="38" y2="426.5"/>
			<line class="st2" x1="53.8" y1="430.4" x2="53.8" y2="426.2"/>
			<path class="st5" d="M34,412v8.5c0,1,15.1,1.9,34,1.9s34-0.8,34-1.9V412H34z"/>
			<ellipse class="st5" cx="68" cy="412" rx="34" ry="1.9"/>
			<ellipse class="st5" cx="68" cy="411.8" rx="26.1" ry="1.1"/>
			<line class="st2" x1="98.6" y1="413" x2="98.6" y2="419.6"/>
			<line class="st2" x1="93.6" y1="413.6" x2="93.6" y2="420.5"/>
			<line class="st2" x1="86.3" y1="413.8" x2="86.3" y2="419.3"/>
			<line class="st2" x1="76.8" y1="417.3" x2="76.8" y2="422"/>
			<line class="st2" x1="66.7" y1="422.5" x2="66.7" y2="416.7"/>
			<line class="st2" x1="36.1" y1="413" x2="36.1" y2="415.9"/>
			<line class="st2" x1="40.1" y1="421.3" x2="40.1" y2="417.8"/>
			<line class="st2" x1="55.9" y1="421.7" x2="55.9" y2="417.5"/>
			<path class="st5" d="M35.1,403.3v8.5c0,1,15.1,1.9,34,1.9c18.7,0,34-0.8,34-1.9v-8.5H35.1z"/>
			<ellipse class="st5" cx="69.1" cy="403.3" rx="34" ry="1.9"/>
			<path class="st5" d="M95.2,403.1c0,0.6-11.8,1.3-26.1,1.3S43,403.9,43,403.1c0-0.6,11.6-1.1,26.1-1.1S95.2,402.3,95.2,403.1z"/>
			<line class="st2" x1="99.7" y1="404.3" x2="99.7" y2="410.9"/>
			<line class="st2" x1="94.9" y1="404.9" x2="94.9" y2="411.8"/>
			<line class="st2" x1="87.6" y1="405.1" x2="87.6" y2="410.6"/>
			<line class="st2" x1="78" y1="408.6" x2="78" y2="413.3"/>
			<line class="st2" x1="67.8" y1="413.8" x2="67.8" y2="408"/>
			<line class="st2" x1="37.3" y1="404.3" x2="37.3" y2="407.2"/>
			<line class="st2" x1="41.4" y1="412.6" x2="41.4" y2="409.1"/>
			<line class="st2" x1="57" y1="413" x2="57" y2="408.8"/>
			<path class="st5" d="M34,394.6v8.5c0,1.1,15.1,1.9,34,1.9s34-0.8,34-1.9v-8.5H34z"/>
			<ellipse class="st5" cx="68" cy="394.6" rx="34" ry="1.9"/>
			<ellipse class="st5" cx="68" cy="394.3" rx="26.1" ry="1.1"/>
			<line class="st2" x1="98.6" y1="395.6" x2="98.6" y2="402.2"/>
			<line class="st2" x1="93.6" y1="396.2" x2="93.6" y2="403.1"/>
			<line class="st2" x1="86.3" y1="396.4" x2="86.3" y2="401.9"/>
			<line class="st2" x1="76.8" y1="399.9" x2="76.8" y2="404.6"/>
			<line class="st2" x1="66.7" y1="405.1" x2="66.7" y2="399.3"/>
			<line class="st2" x1="36.1" y1="395.6" x2="36.1" y2="398.5"/>
			<line class="st2" x1="40.1" y1="403.9" x2="40.1" y2="400.4"/>
			<line class="st2" x1="55.9" y1="404.3" x2="55.9" y2="400.1"/>
			<path class="st5" d="M35.9,385.9v8.5c0,1,15.1,1.9,34,1.9s34-0.8,34-1.9v-8.5H35.9z"/>
			<ellipse class="st5" cx="69.7" cy="385.9" rx="34" ry="1.9"/>
			<path class="st5" d="M95.8,385.7c0,0.6-11.6,1.1-26.1,1.1s-26.1-0.5-26.1-1.1s11.8-1.3,26.1-1.3S95.8,384.9,95.8,385.7z"/>
			<line class="st2" x1="100.3" y1="386.9" x2="100.3" y2="393.5"/>
			<line class="st2" x1="95.5" y1="387.5" x2="95.5" y2="394.4"/>
			<line class="st2" x1="88.3" y1="387.7" x2="88.3" y2="393.2"/>
			<line class="st2" x1="78.8" y1="391.2" x2="78.8" y2="395.9"/>
			<line class="st2" x1="68.4" y1="396.4" x2="68.4" y2="390.4"/>
			<line class="st2" x1="38" y1="386.9" x2="38" y2="389.8"/>
			<line class="st2" x1="42" y1="395.1" x2="42" y2="391.7"/>
			<line class="st2" x1="57.8" y1="395.6" x2="57.8" y2="391.4"/>
			<path class="st5" d="M31.4,377.2v8.5c0,1,15.1,1.9,34,1.9c18.7,0,34-0.8,34-1.9v-8.5H31.4z"/>
			<ellipse class="st5" cx="65.4" cy="377.2" rx="34" ry="1.9"/>
			<path class="st5" d="M91.5,376.9c0,0.6-11.6,1.1-26.1,1.1c-14.3,0-26.1-0.5-26.1-1.1c0-0.6,11.6-1.3,26.1-1.3
				C79.7,375.7,91.5,376.2,91.5,376.9z"/>
			<line class="st2" x1="95.8" y1="378.2" x2="95.8" y2="384.8"/>
			<line class="st2" x1="91" y1="378.8" x2="91" y2="385.7"/>
			<line class="st2" x1="83.8" y1="379" x2="83.8" y2="384.3"/>
			<line class="st2" x1="74.2" y1="382.5" x2="74.2" y2="387.2"/>
			<line class="st2" x1="64.1" y1="387.7" x2="64.1" y2="381.7"/>
			<line class="st2" x1="33.5" y1="378.2" x2="33.5" y2="381.1"/>
			<line class="st2" x1="37.5" y1="386.4" x2="37.5" y2="383"/>
			<line class="st2" x1="53.3" y1="386.9" x2="53.3" y2="382.7"/>
			<circle class="st6" cx="99.9" cy="403.5" r="37.2"/>
			<circle class="st5" cx="97.6" cy="403.5" r="37.2"/>
			<circle class="st5" cx="97.6" cy="403.5" r="32.2"/>
			<path class="st6" d="M107,429.6l-1.9-5.2c-3.5,1.1-6.6,1.1-9.2-0.3c-2.6-1.5-4.8-4.4-6.6-8.7l7.4-4.2c0.5,1.5,1.3,2.9,2.1,4.2
				c0.5,0.8,1.3,1.5,2.1,1.9c0.6,0.3,1.5,0.3,2.3,0c1-0.3,1.5-1,1.5-1.8c0-0.8-0.2-1.5-0.3-2.3c-0.5-1.6-1.6-2.9-2.9-3.9
				c-1.5-1-3.1-1.8-4.7-2.3l-4.8-1.6c-1.3-0.5-2.6-1.1-3.9-1.8c-1.3-0.6-2.4-1.6-3.4-2.6c-1.1-1.3-1.9-2.7-2.6-4.4
				c-1.3-3.2-1.3-6.1-0.2-8.7c1.3-2.7,3.5-4.8,6.3-6.1l-1.9-4.8l2.6-1l1.9,4.8c1.6-0.6,3.5-0.8,5.3-0.5c1.5,0.3,2.7,1,3.9,1.9
				c1.1,1,1.9,2.1,2.7,3.2c0.6,1.1,1.3,2.3,1.8,3.5l-7.6,4c-0.5-1.1-1-2.1-1.5-3.2c-0.3-0.8-1-1.3-1.6-1.8c-0.6-0.3-1.3-0.3-1.9,0
				c-0.8,0.3-1.5,1-1.5,1.8c-0.2,0.8,0,1.6,0.2,2.4c0.5,1.5,1.5,2.7,2.7,3.5c1.3,0.6,2.6,1.3,3.9,1.8l4.7,1.6
				c1.6,0.6,3.1,1.3,4.5,2.1c1.5,0.8,2.7,1.9,3.9,3.1c1.3,1.5,2.3,3.1,2.9,4.7c0.6,1.8,1,3.5,0.8,5.5c-0.2,1.8-0.8,3.5-1.8,5
				c-1.1,1.6-2.6,2.9-4.4,3.7l1.9,5.2L107,429.6z"/>
			<path class="st5" d="M106,429.6l-1.9-5.2c-3.5,1.1-6.6,1.1-9.2-0.3s-4.8-4.4-6.6-8.7l7.4-4.2c0.6,1.5,1.3,2.9,2.1,4.2
				c0.5,0.8,1.3,1.5,2.1,1.9c0.6,0.3,1.5,0.3,2.3,0c1-0.3,1.5-1,1.5-1.8c0-0.8-0.2-1.5-0.3-2.3c-0.5-1.6-1.6-2.9-2.9-3.9
				c-1.5-1-3.1-1.8-4.7-2.3l-4.8-1.8c-1.3-0.5-2.7-1.1-4-1.8c-1.3-0.6-2.4-1.6-3.4-2.6c-1.1-1.3-1.9-2.7-2.6-4.4
				c-1.3-3.2-1.3-6.1-0.2-8.7c1.3-2.7,3.5-4.8,6.3-6.1L85,377l2.6-1l1.9,4.8c1.6-0.6,3.5-0.8,5.3-0.5c1.5,0.3,2.7,1,3.9,1.9
				c1.1,1,1.9,2.1,2.7,3.2c0.6,1.1,1.3,2.3,1.8,3.5l-7.6,4c-0.5-1.3-1-2.3-1.5-3.2c-0.3-0.8-1-1.3-1.6-1.8c-0.6-0.3-1.3-0.3-1.9,0
				c-0.8,0.3-1.5,1-1.5,1.8c-0.2,0.8,0,1.6,0.2,2.4c0.5,1.5,1.5,2.7,2.7,3.5c1.3,0.6,2.6,1.3,3.9,1.8l4.7,1.6
				c1.6,0.6,3.1,1.3,4.5,2.1c1.5,0.8,2.7,1.9,3.9,3.1c1.3,1.5,2.3,3.1,2.9,4.7c0.6,1.8,1,3.5,0.8,5.5c-0.2,1.8-0.8,3.5-1.8,5
				c-1.1,1.6-2.6,2.9-4.4,3.7l1.9,5.2L106,429.6z"/>
		</g>
		<g id="freepik--Banknote--inject-2">
			<path class="st7" d="M264.4,200.8c-63.8-25.5-127.4,25.8-191.2,0.3v-98.9c63.8,25.5,127.4-25.8,191.2-0.3V200.8z"/>
			<path class="st5" d="M253.2,125.4c-9-2.4-16.4-10.3-16.4-19.5c0-0.5,0-0.8,0-1.3c-45.1-4.7-90.2,18-135.3,13.9c0,0.5,0,0.8,0,1.3
				c0,9-7.4,16-16.4,13.5c-0.6-0.2-1.3-0.3-1.8-0.6v42.7c0.6,0.2,1.1,0.2,1.8,0.3c9,2.4,16.4,10.2,16.4,19.3c0,1.1-0.2,2.1-0.3,3.2
				c45.3,4.4,90.5-18.5,135.8-13.7c-0.2-1.1-0.3-2.1-0.3-3.2c0-9,7.4-16,16.4-13.5c0.3,0.2,0.6,0.2,1,0.3v-42.5
				C253.9,125.5,253.6,125.5,253.2,125.4z"/>
			<path class="st7" d="M192.5,147.6c0,13.1-10.6,25.6-23.7,28.2s-23.7-6.1-23.7-19.2s10.6-25.5,23.7-28.2
				C181.9,125.5,192.5,134.4,192.5,147.6z"/>
			<path class="st3" d="M168.3,170v-3.4c-2.4,0.3-4.2,0-5.3-1.3s-1.8-3.2-1.9-6.1l5.3-1.9c0,1,0.2,1.9,0.3,2.9
				c0.2,0.5,0.3,1.1,0.8,1.5c0.3,0.3,0.8,0.3,1.3,0.2c0.5,0,1-0.5,1.3-1c0.2-0.5,0.3-1,0.3-1.5c0-1-0.2-1.9-0.8-2.7
				c-0.6-0.8-1.5-1.5-2.3-1.9l-2.4-1.6c-0.6-0.5-1.3-1-1.9-1.6c-0.6-0.6-1-1.3-1.3-1.9c-0.3-1-0.5-1.9-0.5-2.9c0-2.1,0.6-4,1.9-5.5
				c1.3-1.6,3.1-2.6,5.2-3.2v-3.2l1.8-0.3v3.2c1.1-0.2,2.3-0.2,3.2,0.3c0.8,0.3,1.5,1,1.8,1.6c0.5,0.8,0.6,1.6,0.8,2.4
				c0.2,0.8,0.2,1.6,0.3,2.4l-5.3,1.8c0-0.6,0-1.5-0.2-2.1c0-0.5-0.2-1-0.5-1.3c-0.3-0.3-0.8-0.3-1.1-0.2c-0.5,0.2-1,0.5-1.3,1
				c-0.3,0.5-0.3,1-0.5,1.6c0,1,0.2,1.8,0.8,2.6c0.6,0.6,1.1,1.1,1.9,1.6l2.4,1.6c0.8,0.5,1.5,1.1,2.3,1.8c0.6,0.6,1.1,1.5,1.6,2.4
				c0.5,1.1,0.6,2.3,0.6,3.4c0,1.3-0.3,2.4-0.8,3.5c-0.5,1.1-1.3,2.1-2.3,2.9c-1,0.8-2.1,1.5-3.4,1.8v3.5L168.3,170z"/>
		</g>
		<g id="freepik--Calendar--inject-2">
			<path class="st5" d="M453,440.5h-42.4l13.5-14.8c0,0,5-2.1,8.9-1C437.1,426,453,440.5,453,440.5z"/>
			<path class="st8" d="M428.1,280.4l28.4,156.8c0.3,1.6-0.8,3.1-2.3,3.2c-0.8,0.2-1.5,0-2.1-0.5l-18.4-13.1
				c-2.6-1.8-6.1-1.5-8.4,0.8l-15.1,16.3c-0.6,0.6-1.5,0.6-2.1,0c-0.3-0.3-0.5-0.6-0.5-1l-8.1-154.4L428.1,280.4z"/>
			<path class="st5" d="M425.3,427.8c0.8-0.8,1.9-1.5,3.2-1.8l1.1-0.2l-23-0.3l1,17.6l0.8,1.1c0.5,0.3,1.3,0.3,1.8-0.2L425.3,427.8z
				"/>
			<polygon class="st5" points="123.2,444.4 408.9,444.4 428.1,280.4 142.4,280.4 			"/>
			<path class="st3" d="M276.1,331l1-8.2c-0.2,0-0.2,0.2-0.3,0.2l-0.5,0.2l-0.5,0.2l-0.3,0.2l0.2-1.3c0.2,0,0.3-0.2,0.5-0.2
				c0.2,0,0.3-0.2,0.6-0.3c0.2-0.2,0.3-0.2,0.6-0.3c0.2-0.2,0.3-0.2,0.5-0.3h1.3l-1.1,10H276.1z"/>
			<path class="st3" d="M312.2,331l0.2-1.3l2.9-3.9l0.6-0.8c0.2-0.3,0.3-0.5,0.5-0.8c0.2-0.3,0.2-0.6,0.3-1c0-0.3,0-0.6-0.2-0.8
				s-0.3-0.3-0.6-0.3c-0.2,0-0.5,0-0.6,0.2c-0.2,0.2-0.3,0.3-0.3,0.6c-0.2,0.3-0.2,0.5-0.2,0.8v0.5H313v-0.5c0-0.5,0.2-1.1,0.5-1.6
				c0.2-0.5,0.6-0.8,1-1.1c0.5-0.3,1-0.5,1.6-0.3c0.6,0,1.5,0.2,1.9,0.6c0.5,0.6,0.5,1.3,0.5,1.9c0,0.3-0.2,0.8-0.3,1.1
				c-0.2,0.3-0.3,0.6-0.6,1c-0.2,0.3-0.5,0.6-0.8,1l-2.4,3.1h3.1l-0.2,1.5L312.2,331z"/>
			<path class="st3" d="M352,331.1c-0.5,0-1-0.2-1.5-0.3c-0.3-0.2-0.6-0.6-0.6-1c-0.2-0.5-0.2-1,0-1.5v-0.3h1.8v0.2v0.2
				c0,0.3,0,0.5,0,0.8c0,0.3,0.3,0.6,0.6,0.6c0,0,0,0,0.2,0s0.5,0,0.6-0.2s0.3-0.3,0.3-0.5c0-0.3,0.2-0.6,0.2-0.8
				c0-0.5,0-0.8-0.2-1.1c-0.2-0.3-0.5-0.5-1-0.5h-0.3l0.2-1.5h0.3c0.3,0,0.8-0.2,1-0.3c0.2-0.3,0.3-0.8,0.3-1.1s0-0.6,0-1
				c-0.2-0.3-0.5-0.5-0.6-0.3c-0.3,0-0.6,0.2-0.8,0.3c-0.2,0.3-0.3,0.6-0.3,1v0.2v0.2h-1.8v-0.5c0-0.5,0.2-1,0.5-1.5
				c0.2-0.3,0.6-0.6,1-1c0.5-0.2,1-0.3,1.5-0.3s1,0.2,1.5,0.3c0.3,0.2,0.6,0.5,0.8,1c0.2,0.5,0.2,1,0.2,1.5s-0.2,1-0.5,1.5
				c-0.3,0.3-0.6,0.6-1.1,0.8c0.3,0,0.5,0.2,0.6,0.5c0.2,0.2,0.3,0.5,0.3,0.8c0,0.3,0,0.8,0,1.1c0,0.5-0.2,1.1-0.5,1.6
				c-0.2,0.5-0.5,0.8-1,1.1C353,331,352.5,331.1,352,331.1z"/>
			<path class="st3" d="M389.7,331l0.3-2.4h-2.9l0.2-1.5l3.4-6.1h1.9l-0.8,6.3h1l-0.2,1.5h-1l-0.3,2.4L389.7,331z M388.6,327.1h1.6
				l0.5-4.4L388.6,327.1z"/>
			<path class="st3" d="M162.9,354.3c-0.5,0-1.1,0-1.6-0.3c-0.3-0.3-0.6-0.6-0.6-1.1c-0.2-0.5-0.2-1.1,0-1.6h1.6c0,0.3,0,0.6,0,1
				c0,0.2,0,0.5,0.2,0.6c0.2,0.2,0.3,0.2,0.6,0.2s0.5-0.2,0.6-0.3c0.2-0.2,0.3-0.5,0.3-0.8s0.2-0.6,0.2-1.1c0-0.3,0-0.6,0-1
				c0-0.2,0-0.5-0.2-0.6c-0.2-0.2-0.3-0.3-0.6-0.2c-0.2,0-0.5,0.2-0.6,0.2c-0.2,0.2-0.3,0.3-0.5,0.6h-1.3l0.8-5.6h4.5l-0.2,1.6H163
				l-0.3,2.4c0.2-0.2,0.3-0.3,0.6-0.3c0.3-0.2,0.5-0.2,0.8-0.2c1-0.2,1.8,0.5,1.9,1.5l0,0c0.2,0.5,0.2,1.1,0,1.8
				c0,0.5-0.2,1-0.3,1.5c-0.2,0.5-0.3,0.8-0.5,1.1c-0.2,0.3-0.5,0.6-1,0.8C163.7,354.3,163.2,354.3,162.9,354.3z"/>
			<path class="st3" d="M201.5,354.3c-0.5,0-1-0.2-1.5-0.5c-0.3-0.3-0.6-0.6-0.6-1.1c-0.2-0.5-0.2-1.1,0-1.8l0.5-3.5
				c0-0.6,0.2-1.1,0.5-1.8c0.2-0.5,0.5-1,1-1.3c0.5-0.3,1.1-0.5,1.6-0.5c0.5,0,1,0,1.5,0.3c0.3,0.2,0.6,0.5,0.6,0.8
				c0.2,0.5,0.2,1,0.2,1.5l0,0l0,0h-1.8c0-0.3,0-0.6,0-1c0-0.2-0.3-0.3-0.6-0.3c-0.2,0-0.3,0-0.5,0.2c-0.2,0.2-0.3,0.5-0.3,0.6
				c-0.2,0.3-0.2,0.8-0.2,1.1l-0.2,1.1c0.2-0.2,0.3-0.3,0.6-0.5c0.3-0.2,0.5-0.2,0.8-0.2c0.5,0,1,0.2,1.3,0.3c0.3,0.3,0.5,0.6,0.5,1
				c0.2,0.5,0.2,1,0,1.5c0,0.6-0.2,1.1-0.5,1.8c-0.2,0.5-0.5,1-1,1.3C202.7,354.2,202.2,354.3,201.5,354.3z M201.7,353
				c0.2,0,0.5,0,0.6-0.2c0.2-0.2,0.3-0.3,0.3-0.6c0.2-0.3,0.2-0.6,0.2-1c0-0.3,0-0.6,0-1c0-0.2,0-0.5-0.2-0.6
				c-0.2-0.2-0.3-0.3-0.6-0.3c-0.2,0-0.3,0-0.5,0s-0.2,0.2-0.3,0.2c-0.2,0-0.2,0.2-0.2,0.3l-0.2,1.6c0,0.3,0,0.5,0,0.8
				c0,0.2,0.2,0.5,0.2,0.6C201.4,352.9,201.5,353,201.7,353L201.7,353z"/>
			<path class="st3" d="M235.4,354.2l3.1-8.7h-2.7l0.2-1.3h4.4l-0.2,1.1l-3.1,9h-1.6V354.2z"/>
			<path class="st3" d="M274.8,354.3c-0.5,0-1.1-0.2-1.5-0.3c-0.3-0.3-0.6-0.6-0.6-1.1c-0.2-0.5-0.2-1.1,0-1.6
				c0-0.3,0.2-0.5,0.2-0.8c0-0.2,0.2-0.5,0.3-0.6s0.3-0.3,0.5-0.5c0.2-0.2,0.3-0.3,0.5-0.3c-0.3-0.2-0.5-0.5-0.6-0.8
				c-0.2-0.5-0.2-1-0.2-1.5s0.2-1,0.5-1.5c0.2-0.3,0.5-0.6,1-1c0.5-0.2,1-0.3,1.5-0.3s1,0.2,1.3,0.3c0.3,0.2,0.6,0.5,0.6,1
				c0.3,1,0.2,1.9-0.3,2.7c-0.2,0.3-0.5,0.6-0.8,0.8c0.2,0.2,0.3,0.2,0.5,0.3c0.2,0.2,0.2,0.3,0.3,0.5c0.2,0.2,0.2,0.5,0.2,0.6
				c0,0.3,0,0.5,0,0.8c0,0.5-0.2,1.1-0.5,1.6c-0.2,0.5-0.5,0.8-1,1.1C275.8,354.2,275.3,354.3,274.8,354.3z M274.8,353
				c0.3,0,0.5-0.2,0.6-0.3s0.3-0.3,0.3-0.6s0.2-0.5,0.2-0.8c0-0.3,0-0.5,0-0.8c0-0.2,0-0.5-0.2-0.6s-0.3-0.3-0.6-0.3
				c-0.2,0-0.5,0-0.6,0.3c-0.2,0.2-0.3,0.3-0.3,0.6c-0.2,0.3-0.2,0.5-0.2,0.8c0,0.3,0,0.5,0,0.8c0,0.2,0,0.5,0.2,0.6
				C274.5,352.9,274.7,353,274.8,353L274.8,353z M275.5,348.2c0.2,0,0.3-0.2,0.5-0.2c0.2-0.2,0.3-0.3,0.3-0.6c0-0.3,0.2-0.5,0.2-0.8
				c0-0.3,0-0.6,0-1c-0.2-0.2-0.3-0.3-0.6-0.3c-0.3,0-0.5,0.2-0.6,0.3c-0.2,0.3-0.3,0.6-0.3,1c0,0.3,0,0.5,0,0.8
				c0,0.2,0.2,0.5,0.2,0.6C275.2,348,275.3,348.2,275.5,348.2z"/>
			<path class="st3" d="M312.1,354.3c-0.5,0-1,0-1.5-0.3c-0.3-0.2-0.6-0.5-0.6-0.8c-0.2-0.5-0.2-1-0.2-1.5v-0.2h1.6c0,0.3,0,0.6,0,1
				c0,0.2,0.3,0.3,0.6,0.3c0.2,0,0.3,0,0.5-0.2c0.2-0.2,0.3-0.5,0.3-0.6c0.2-0.3,0.2-0.8,0.2-1.1l0.2-1.1c-0.2,0.2-0.3,0.3-0.6,0.5
				c-0.3,0.2-0.5,0.2-0.8,0.2c-0.5,0-1-0.2-1.3-0.3c-0.3-0.3-0.5-0.6-0.5-1.1c-0.2-0.5-0.2-1,0-1.5c0-0.6,0.2-1.1,0.5-1.8
				c0.2-0.5,0.5-1,1-1.1c0.5-0.3,1-0.5,1.6-0.5c0.5,0,1,0.2,1.5,0.5c0.3,0.3,0.6,0.6,0.6,1.1c0.2,0.5,0.2,1.1,0,1.6l-0.5,3.5
				c0,0.6-0.2,1.3-0.5,1.8c-0.2,0.5-0.5,1-1,1.3C313.2,354.2,312.7,354.3,312.1,354.3z M312.7,349c0.2,0,0.5,0,0.6-0.2
				s0.3-0.2,0.3-0.3l0.2-1.6c0-0.3,0-0.5,0-0.8c0-0.2-0.2-0.5-0.2-0.6c-0.2-0.2-0.3-0.2-0.5-0.2c-0.2,0-0.5,0-0.6,0.2
				s-0.3,0.3-0.3,0.6c-0.2,0.3-0.2,0.6-0.2,1c0,0.3,0,0.6,0,1c0,0.2,0,0.5,0.2,0.6C312.2,349,312.5,349,312.7,349z"/>
			<path class="st3" d="M348.1,354.2l1-8.2l-0.3,0.2c-0.2,0-0.3,0.2-0.5,0.2l-0.5,0.2c-0.2,0-0.2,0-0.3,0.2l0.2-1.3l0.5-0.2l0.6-0.3
				c0.2-0.2,0.3-0.2,0.6-0.3c0.2-0.2,0.3-0.2,0.5-0.3h1.3l-1.1,10.2h-1.9V354.2z"/>
			<path class="st3" d="M355.6,354.3c-0.5,0-1-0.2-1.5-0.3c-0.3-0.3-0.6-0.6-0.8-1c-0.2-0.5-0.2-1-0.2-1.5l0.5-4.5
				c0-0.5,0.2-1.1,0.5-1.6c0.2-0.5,0.6-0.8,1-1c0.5-0.3,1-0.3,1.6-0.3c0.5,0,1,0.2,1.5,0.3c0.3,0.3,0.6,0.6,0.8,1
				c0.2,0.5,0.2,1,0.2,1.6l-0.5,4.5c0,0.5-0.2,1-0.5,1.5c-0.2,0.5-0.6,0.8-1,1C356.7,354.2,356.2,354.3,355.6,354.3z M355.9,352.9
				c0.2,0,0.5,0,0.6-0.2s0.3-0.3,0.3-0.6c0-0.2,0.2-0.5,0.2-0.6l0.5-4.4c0-0.2,0-0.5,0-0.6s0-0.5-0.2-0.6s-0.3-0.3-0.6-0.2
				c-0.2,0-0.5,0-0.6,0.2s-0.3,0.3-0.3,0.6c0,0.2-0.2,0.5-0.2,0.6l-0.5,4.4c0,0.2,0,0.5,0,0.6c0,0.2,0,0.3,0.2,0.6
				C355.4,352.7,355.6,352.9,355.9,352.9z"/>
			<path class="st3" d="M385.4,354.2l1-8.2l-0.3,0.2c-0.2,0-0.3,0.2-0.5,0.2l-0.5,0.2c-0.2,0-0.2,0-0.3,0.2l0.2-1.3l0.5-0.2l0.6-0.3
				c0.2-0.2,0.3-0.2,0.6-0.3c0.2-0.2,0.3-0.2,0.5-0.3h1.3l-1.1,10.2L385.4,354.2z"/>
			<path class="st3" d="M391.5,354.2l1-8.2l-0.3,0.2c-0.2,0-0.3,0.2-0.5,0.2l-0.5,0.2c-0.2,0-0.2,0-0.3,0.2l0.2-1.3l0.5-0.2l0.6-0.3
				c0.2-0.2,0.3-0.2,0.6-0.3c0.2-0.2,0.3-0.2,0.5-0.3h1.3l-1.1,10.2h-1.9V354.2z"/>
			<path class="st3" d="M158.8,377.4l1-8.2l-0.3,0.2l-0.5,0.2l-0.5,0.2c-0.2,0-0.2,0-0.3,0.2l0.2-1.3l0.5-0.2l0.6-0.3
				c0.2-0.2,0.3-0.2,0.6-0.3c0.2-0.2,0.3-0.2,0.5-0.3h1.3l-1.1,10H158.8z"/>
			<path class="st3" d="M163.7,377.4l0.2-1.3l2.9-3.9l0.6-0.8c0.2-0.3,0.3-0.5,0.5-0.8c0.2-0.3,0.2-0.6,0.3-1c0-0.3,0-0.6-0.2-0.8
				s-0.3-0.3-0.6-0.3c-0.2,0-0.5,0-0.6,0.2c-0.2,0.2-0.3,0.3-0.3,0.6c-0.2,0.3-0.2,0.5-0.2,0.8v0.5h-1.8v-0.5c0-0.5,0.2-1.1,0.5-1.6
				c0.2-0.5,0.6-0.8,1-1.1c0.5-0.3,1-0.5,1.6-0.3c0.6,0,1.5,0.2,1.9,0.6c0.5,0.6,0.5,1.3,0.5,1.9c0,0.3-0.2,0.8-0.3,1.1
				c-0.2,0.3-0.3,0.6-0.6,1c-0.2,0.3-0.5,0.6-0.8,1l-2.4,3.1h3.1l-0.2,1.5L163.7,377.4z"/>
			<path class="st3" d="M197.3,377.4l1-8.2l-0.3,0.2l-0.5,0.2l-0.5,0.2c-0.2,0-0.2,0-0.3,0.2l0.2-1.3l0.5-0.2l0.6-0.3
				c0.2-0.2,0.3-0.2,0.6-0.3c0.2-0.2,0.3-0.2,0.5-0.3h1.3l-1.1,10H197.3z"/>
			<path class="st3" d="M204.8,377.5c-0.5,0-1-0.2-1.5-0.3c-0.3-0.2-0.6-0.6-0.6-1c-0.2-0.5-0.2-1-0.2-1.5v-0.3h1.8v0.2v0.2
				c0,0.3,0,0.5,0,0.8c0,0.2,0.2,0.3,0.2,0.5c0.2,0.2,0.3,0.2,0.5,0.2c0.2,0,0.5,0,0.6-0.2c0.2-0.2,0.3-0.3,0.3-0.5
				c0-0.3,0.2-0.5,0.2-0.8c0-0.5,0-0.8-0.2-1.3c-0.2-0.3-0.5-0.5-0.8-0.5h-0.3l0.2-1.5h0.3c0.3,0,0.8-0.2,1-0.3
				c0.3-0.3,0.3-0.8,0.3-1.1s0-0.6,0-1c-0.2-0.3-0.5-0.5-0.6-0.3c-0.3,0-0.6,0.2-0.8,0.5c-0.2,0.3-0.3,0.6-0.3,1v0.2v0.2H203v-0.5
				c0-0.5,0.2-1,0.5-1.5c0.2-0.3,0.6-0.6,1-1c0.5-0.2,1-0.3,1.5-0.3c0.5,0,1,0.2,1.5,0.3c0.3,0.2,0.6,0.5,0.8,1
				c0.2,0.5,0.2,1,0.2,1.5s-0.2,1-0.5,1.5c-0.3,0.3-0.6,0.6-1.1,0.8c0.3,0.2,0.5,0.2,0.6,0.5c0.2,0.2,0.3,0.5,0.3,0.8
				c0,0.3,0,0.8,0,1.1c0,0.5-0.2,1.1-0.5,1.6c-0.2,0.5-0.5,0.8-1,1.1C205.9,377.4,205.4,377.5,204.8,377.5z"/>
			<path class="st3" d="M233.4,377.4l1-8.2l-0.3,0.2l-0.5,0.2l-0.5,0.2l-0.3,0.2l0.2-1.3l0.5-0.2l0.6-0.3c0.2-0.2,0.3-0.2,0.6-0.3
				c0.2-0.2,0.3-0.2,0.5-0.3h1.3l-1.1,10H233.4z"/>
			<path class="st3" d="M241.2,377.4l0.3-2.4h-2.9l0.2-1.5l3.4-6.1h1.9l-0.6,6.3h1l-0.2,1.3h-1l-0.3,2.4H241.2z M240,373.5h1.6
				l0.5-4.4L240,373.5z"/>
			<path class="st3" d="M270.8,377.4l1-8.2l-0.3,0.2l-0.5,0.2l-0.5,0.2c-0.2,0-0.2,0-0.3,0.2l0.2-1.3l0.5-0.2l0.6-0.3
				c0.2-0.2,0.3-0.2,0.6-0.3c0.2-0.2,0.3-0.2,0.5-0.3h1.3l-1.1,10H270.8z"/>
			<path class="st3" d="M278.1,377.5c-0.5,0-1.1-0.2-1.5-0.3c-0.3-0.3-0.6-0.6-0.6-1.1c0-0.5,0-1.1,0-1.6h1.6c0,0.3,0,0.6,0,1
				c0,0.2,0,0.5,0.2,0.6c0.2,0.2,0.3,0.2,0.6,0.2c0.3,0,0.5-0.2,0.6-0.3c0.2-0.2,0.3-0.5,0.3-0.8c0.2-0.3,0.2-0.8,0.2-1.1
				c0-0.3,0-0.6,0-1c0-0.2,0-0.5-0.2-0.6c-0.2-0.2-0.3-0.3-0.6-0.2c-0.2,0-0.5,0-0.6,0.2c-0.2,0.2-0.3,0.3-0.5,0.6h-1.5l0.8-5.6h4.5
				l-0.2,1.6h-3.1l-0.3,2.4c0.2-0.2,0.3-0.3,0.6-0.3c0.3-0.2,0.5-0.2,0.8-0.2c0.5,0,1,0,1.3,0.3c0.3,0.3,0.5,0.6,0.6,1.1
				c0.2,0.5,0.2,1.1,0,1.6c0,0.5-0.2,1-0.3,1.5s-0.3,0.8-0.5,1.1c-0.2,0.3-0.5,0.6-1,0.8C279,377.5,278.5,377.5,278.1,377.5z"/>
			<path class="st3" d="M308,377.4l1-8.2l-0.3,0.2l-0.5,0.2l-0.5,0.2c-0.2,0-0.2,0-0.3,0.2l0.2-1.3l0.5-0.2l0.6-0.3
				c0.2-0.2,0.3-0.2,0.6-0.3c0.2-0.2,0.3-0.2,0.5-0.3h1.3l-1.1,10H308z"/>
			<path class="st3" d="M315.6,377.5c-0.5,0-1-0.2-1.5-0.5c-0.3-0.3-0.6-0.6-0.6-1.1c-0.2-0.5-0.2-1.1,0-1.6l0.5-3.5
				c0-0.6,0.2-1.1,0.5-1.8c0.2-0.5,0.5-1,1-1.3c0.5-0.3,1.1-0.5,1.6-0.5s1,0,1.5,0.3c0.3,0.2,0.6,0.5,0.6,0.8c0.2,0.5,0.2,1,0.2,1.5
				v0.2c0,0,0,0,0,0.2h-1.8c0-0.3,0-0.6,0-1c0-0.2-0.3-0.3-0.6-0.3c-0.2,0-0.3,0-0.5,0.2c-0.2,0.2-0.3,0.5-0.3,0.6
				c-0.2,0.3-0.2,0.8-0.2,1.1l-0.2,1.1c0.2-0.2,0.3-0.3,0.6-0.5c0.3-0.2,0.5-0.2,0.8-0.2c0.5,0,1,0.2,1.3,0.3c0.3,0.3,0.5,0.6,0.5,1
				c0.2,0.5,0.2,1,0,1.5c0,0.6-0.2,1.1-0.5,1.8c-0.2,0.5-0.5,1-1,1.3C316.7,377.4,316.2,377.5,315.6,377.5z M315.8,376.2
				c0.2,0,0.5,0,0.6-0.2s0.3-0.3,0.3-0.6c0.2-0.3,0.2-0.6,0.2-1s0-0.6,0-1c0-0.2,0-0.5-0.2-0.6c-0.2-0.2-0.3-0.3-0.6-0.3
				c-0.2,0-0.3,0-0.5,0c-0.2,0-0.2,0.2-0.3,0.2s-0.2,0.2-0.2,0.3l-0.2,1.6c0,0.3,0,0.5,0,0.8c0,0.2,0.2,0.5,0.2,0.6
				C315.4,376.1,315.6,376.2,315.8,376.2z"/>
			<path class="st3" d="M345.4,377.4l1-8.2l-0.3,0.2l-0.5,0.2l-0.5,0.2c-0.2,0-0.2,0-0.3,0.2l0.2-1.3l0.5-0.2l0.6-0.3
				c0.2-0.2,0.3-0.2,0.6-0.3c0.2-0.2,0.3-0.2,0.5-0.3h1.3l-1.1,10H345.4z"/>
			<path class="st3" d="M350.6,377.4l3.1-8.7h-2.7l0.2-1.3h4.4l-0.2,1.1l-3.1,9h-1.6V377.4z"/>
			<path class="st3" d="M382.6,377.4l1-8.2l-0.3,0.2l-0.5,0.2l-0.5,0.2l-0.3,0.2l0.2-1.3l0.5-0.2l0.6-0.3c0.2-0.2,0.3-0.2,0.6-0.3
				c0.2-0.2,0.3-0.2,0.5-0.3h1.3l-1.1,10H382.6z"/>
			<path class="st3" d="M390,377.5c-0.5,0-1.1-0.2-1.5-0.3c-0.3-0.3-0.6-0.6-0.6-1.1c-0.2-0.5-0.2-1.1,0-1.6c0-0.3,0.2-0.5,0.2-0.8
				c0-0.2,0.2-0.5,0.3-0.6c0.2-0.2,0.3-0.3,0.5-0.5c0.2-0.2,0.3-0.3,0.5-0.3c-0.3-0.2-0.5-0.5-0.6-0.8c-0.2-0.5-0.2-1-0.2-1.5
				s0.2-1,0.5-1.5c0.2-0.3,0.5-0.6,1-1c0.5-0.2,1-0.3,1.5-0.3c0.5,0,1,0.2,1.3,0.3c0.3,0.2,0.6,0.5,0.6,1c0.2,0.5,0.2,1,0.2,1.5
				s-0.2,1-0.5,1.5c-0.2,0.3-0.5,0.6-0.8,0.8c0.2,0.2,0.3,0.2,0.5,0.3c0.2,0.2,0.2,0.3,0.3,0.5c0.2,0.2,0.2,0.5,0.2,0.6
				c0,0.3,0,0.5,0,0.8c0,0.5-0.2,1.1-0.5,1.6c-0.2,0.5-0.5,0.8-1,1.1C391.2,377.4,390.7,377.5,390,377.5z M390.2,376.2
				c0.2,0,0.5-0.2,0.6-0.3c0.2-0.2,0.3-0.3,0.3-0.6c0-0.3,0.2-0.5,0.2-0.8s0-0.5,0-0.8c0-0.2,0-0.5-0.2-0.6
				c-0.2-0.2-0.3-0.3-0.6-0.3c-0.2,0-0.5,0-0.6,0.3c-0.2,0.2-0.3,0.3-0.3,0.6c-0.2,0.3-0.2,0.5-0.2,0.8s0,0.5,0,0.8
				c0,0.2,0,0.5,0.2,0.6C389.7,376.2,390,376.2,390.2,376.2z M390.8,371.4c0.2,0,0.3-0.2,0.5-0.2c0.2-0.2,0.3-0.3,0.3-0.6
				c0.2-0.3,0.2-0.5,0.2-0.8s0-0.6,0-1c-0.2-0.3-0.3-0.3-0.6-0.3s-0.5,0.2-0.6,0.3c-0.2,0.3-0.3,0.6-0.3,1s0,0.5,0,0.8
				c0,0.2,0,0.5,0.2,0.6C390.4,371.4,390.7,371.4,390.8,371.4L390.8,371.4z"/>
			<path class="st3" d="M156.1,400.6l1-8.2l-0.3,0.2l-0.5,0.2l-0.5,0.2c-0.2,0-0.2,0-0.3,0.2l0.2-1.3l0.5-0.2l0.6-0.3
				c0.2-0.2,0.3-0.2,0.6-0.3c0.2-0.2,0.3-0.2,0.5-0.3h1.3l-1.1,10H156.1z"/>
			<path class="st3" d="M163.5,400.7c-0.5,0-1-0.2-1.5-0.3c-0.3-0.2-0.6-0.5-0.6-0.8c-0.2-0.5-0.2-1-0.2-1.5V398h1.6
				c0,0.3,0,0.6,0,1c0.2,0.2,0.3,0.3,0.6,0.3c0.2,0,0.3,0,0.5-0.2c0.2-0.2,0.3-0.5,0.3-0.6c0.2-0.3,0.2-0.8,0.2-1.1l0.2-1.1
				c-0.2,0.2-0.3,0.3-0.6,0.5c-0.3,0.2-0.5,0.2-0.8,0.2c-0.5,0-1-0.2-1.3-0.3c-0.3-0.3-0.5-0.6-0.6-1.1c0-0.5,0-1,0-1.5
				c0-0.6,0.2-1.1,0.5-1.8c0.2-0.5,0.5-0.8,1-1.1c0.5-0.3,1-0.5,1.6-0.5c0.5,0,1,0.2,1.5,0.5c0.3,0.3,0.6,0.6,0.6,1.1
				c0.2,0.5,0.2,1.1,0,1.6l-0.5,3.5c0,0.6-0.2,1.1-0.5,1.8c-0.2,0.5-0.5,1-1,1.3C164.6,400.6,164.1,400.7,163.5,400.7z M164.1,395.4
				c0.2,0,0.5,0,0.6-0.2c0.2-0.2,0.3-0.2,0.3-0.3l0.2-1.6c0-0.3,0-0.5,0-0.8c0-0.2,0-0.3-0.2-0.6c-0.2-0.2-0.3-0.2-0.5-0.2
				s-0.5,0-0.6,0.2c-0.2,0.2-0.3,0.3-0.3,0.6c-0.2,0.3-0.2,0.6-0.2,1s0,0.6,0,1c0,0.2,0,0.5,0.2,0.6
				C163.7,395.4,164,395.6,164.1,395.4L164.1,395.4z"/>
			<path class="st3" d="M193.3,400.6l0.2-1.3l2.9-3.9l0.6-0.8c0.2-0.3,0.3-0.5,0.5-0.8c0.2-0.3,0.2-0.6,0.3-1c0-0.3,0-0.6-0.2-0.8
				c-0.2-0.2-0.3-0.3-0.6-0.3c-0.2,0-0.5,0-0.6,0.2c-0.2,0.2-0.3,0.3-0.3,0.6c-0.2,0.3-0.2,0.5-0.2,0.8v0.5h-1.8v-0.5
				c0-0.5,0.2-1.1,0.5-1.6c0.2-0.5,0.5-0.8,1-1.1c0.5-0.3,1-0.3,1.6-0.3c0.6,0,1.5,0.2,1.8,0.6c0.5,0.6,0.6,1.3,0.5,1.9
				c0,0.3-0.2,0.8-0.3,1.1c-0.2,0.3-0.3,0.6-0.6,1c-0.2,0.3-0.5,0.6-0.8,1l-2.4,3.1h3.1l-0.2,1.5L193.3,400.6z"/>
			<path class="st3" d="M203.5,400.7c-0.5,0-1-0.2-1.5-0.3c-0.3-0.2-0.6-0.6-0.8-1c-0.2-0.5-0.2-1-0.2-1.5l0.5-4.5
				c0-0.5,0.2-1.1,0.5-1.6c0.2-0.5,0.6-0.8,1-1c0.5-0.3,1-0.3,1.5-0.3c0.5,0,1,0.2,1.5,0.3c0.3,0.2,0.6,0.6,0.8,1
				c0.2,0.5,0.2,1,0.2,1.6l-0.5,4.5c0,0.5-0.2,1-0.5,1.5c-0.2,0.5-0.6,0.8-1,1C204.6,400.7,204.1,400.7,203.5,400.7z M203.6,399.3
				c0.2,0,0.5,0,0.6-0.2c0.2-0.2,0.3-0.3,0.3-0.6c0-0.2,0.2-0.5,0.2-0.6l0.5-4.4c0-0.2,0-0.5,0-0.6s0-0.3-0.2-0.6
				c-0.2-0.2-0.3-0.3-0.5-0.2c-0.2,0-0.5,0-0.6,0.2c-0.2,0.2-0.3,0.3-0.3,0.6c0,0.2-0.2,0.5-0.2,0.6l-0.5,4.4c0,0.2,0,0.5,0,0.6
				s0,0.3,0.2,0.6C203.3,399.3,203.5,399.3,203.6,399.3L203.6,399.3z"/>
			<path class="st3" d="M229.4,400.6l0.2-1.3l2.9-3.9l0.6-0.8c0.2-0.3,0.3-0.5,0.5-0.8c0.2-0.3,0.2-0.6,0.3-1c0-0.3,0-0.6-0.2-0.8
				c-0.2-0.2-0.3-0.3-0.6-0.3c-0.2,0-0.5,0-0.6,0.2c-0.2,0.2-0.3,0.3-0.3,0.6c-0.2,0.3-0.2,0.5-0.2,0.8v0.5h-1.8v-0.5
				c0-0.5,0.2-1.1,0.5-1.6c0.2-0.5,0.5-0.8,1-1.1c0.5-0.3,1-0.3,1.6-0.3c0.6,0,1.5,0.2,1.8,0.6c0.5,0.6,0.6,1.3,0.5,1.9
				c0,0.3-0.2,0.8-0.3,1.1c-0.2,0.3-0.3,0.6-0.6,1c-0.2,0.3-0.5,0.6-0.8,1l-2.4,3.1h3.1l-0.2,1.5h-4.8V400.6z"/>
			<path class="st3" d="M238.1,400.6l1-8.2l-0.3,0.2l-0.5,0.2l-0.5,0.2c-0.2,0-0.2,0-0.3,0.2l0.2-1.3l0.5-0.2l0.6-0.3
				c0.2-0.2,0.3-0.2,0.6-0.3c0.2-0.2,0.3-0.2,0.5-0.3h1.3l-1.1,10H238.1z"/>
			<path class="st3" d="M266.6,400.6l0.2-1.3l2.9-3.9l0.6-0.8c0.2-0.3,0.3-0.5,0.5-0.8c0.2-0.3,0.2-0.6,0.3-1c0-0.3,0-0.6-0.2-0.8
				c-0.2-0.2-0.3-0.3-0.6-0.3c-0.2,0-0.5,0-0.6,0.2s-0.3,0.3-0.3,0.6c-0.2,0.3-0.2,0.5-0.2,0.8v0.5h-1.6v-0.5c0-0.5,0.2-1.1,0.5-1.6
				c0.2-0.5,0.6-0.8,1-1.1c0.5-0.3,1-0.3,1.6-0.3c0.6,0,1.5,0.2,1.9,0.6c0.5,0.6,0.5,1.3,0.5,1.9c0,0.3-0.2,0.8-0.3,1.1
				c-0.2,0.3-0.3,0.6-0.6,1c-0.2,0.3-0.5,0.6-0.8,1l-2.4,3.1h3.1l-0.2,1.5L266.6,400.6z"/>
			<path class="st3" d="M274,400.6l0.2-1.3l2.9-3.9l0.6-0.8c0.2-0.3,0.3-0.5,0.5-0.8c0.2-0.3,0.2-0.6,0.3-1c0-0.3,0-0.6-0.2-0.8
				s-0.3-0.3-0.6-0.3c-0.2,0-0.5,0-0.6,0.2c-0.2,0.2-0.3,0.3-0.3,0.6c-0.2,0.3-0.2,0.5-0.2,0.8v0.5h-1.8v-0.5c0-0.5,0.2-1.1,0.5-1.6
				c0.2-0.5,0.5-0.8,1-1.1c0.5-0.3,1-0.3,1.6-0.3c0.6,0,1.5,0.2,1.8,0.6c0.5,0.6,0.6,1.3,0.5,1.9c0,0.3-0.2,0.8-0.3,1.1
				c-0.2,0.3-0.3,0.6-0.6,1c-0.2,0.3-0.5,0.6-0.8,1L276,399h3.1l-0.2,1.5L274,400.6z"/>
			<path class="st3" d="M304,400.6l0.2-1.3l2.9-3.9l0.6-0.8c0.2-0.3,0.3-0.5,0.5-0.8c0.2-0.3,0.2-0.6,0.3-1c0-0.3,0-0.6-0.2-0.8
				c-0.2-0.2-0.3-0.3-0.6-0.3c-0.2,0-0.5,0-0.6,0.2s-0.3,0.3-0.3,0.6c-0.2,0.3-0.2,0.5-0.2,0.8v0.5h-1.8v-0.5c0-0.5,0.2-1.1,0.5-1.6
				c0.2-0.5,0.6-0.8,1-1.1c0.5-0.3,1-0.3,1.6-0.3s1.5,0.2,1.9,0.6c0.5,0.6,0.6,1.3,0.5,1.9c0,0.3-0.2,0.8-0.3,1.1
				c-0.2,0.3-0.3,0.6-0.6,1c-0.2,0.3-0.5,0.6-0.8,1l-2.4,3.1h3.1l-0.2,1.5L304,400.6z"/>
			<path class="st3" d="M314,400.7c-0.5,0-1-0.2-1.5-0.3c-0.3-0.2-0.6-0.6-0.6-1c-0.2-0.5-0.2-1-0.2-1.5v-0.3h1.8v0.2v0.2
				c0,0.3,0,0.5,0,0.8c0,0.2,0.2,0.3,0.2,0.5c0.2,0.2,0.3,0.2,0.5,0.2c0.2,0,0.5,0,0.6-0.2c0.2-0.2,0.3-0.3,0.3-0.5
				c0-0.3,0.2-0.5,0.2-0.8c0-0.5,0-0.8-0.2-1.3c-0.2-0.3-0.5-0.5-0.8-0.5H314l0.2-1.5h0.3c0.3,0,0.8-0.2,1-0.3
				c0.3-0.3,0.3-0.6,0.3-1.1c0-0.3,0-0.6,0-1c-0.2-0.2-0.3-0.3-0.6-0.3c-0.3,0-0.6,0.2-0.8,0.3c-0.2,0.3-0.3,0.6-0.3,1v0.2v0.2h-1.8
				v-0.5c0-0.5,0.2-1,0.5-1.5c0.3-0.3,0.6-0.6,1-1c0.5-0.2,1-0.3,1.5-0.3s1,0.2,1.5,0.3c0.3,0.2,0.6,0.5,0.8,1
				c0.2,0.5,0.2,1,0.2,1.5s-0.2,1-0.5,1.5c-0.3,0.3-0.6,0.6-1,0.8c0.3,0,0.5,0.2,0.6,0.5c0.2,0.2,0.3,0.5,0.3,0.8c0,0.3,0,0.8,0,1.1
				c0,0.5-0.2,1.1-0.5,1.6c-0.2,0.5-0.6,0.8-1,1.1C315,400.6,314.5,400.7,314,400.7z"/>
			<path class="st3" d="M341.2,400.6l0.2-1.3l2.9-3.9l0.6-0.8c0.2-0.3,0.3-0.5,0.5-0.8c0.2-0.3,0.2-0.6,0.3-1c0-0.3,0-0.6-0.2-0.8
				c-0.2-0.2-0.3-0.3-0.6-0.3c-0.2,0-0.5,0-0.6,0.2s-0.3,0.3-0.3,0.6c-0.2,0.3-0.2,0.5-0.2,0.8v0.5H342v-0.5c0-0.5,0.2-1.1,0.5-1.6
				c0.2-0.5,0.6-0.8,1-1.1c0.5-0.3,1-0.3,1.6-0.3s1.5,0.2,1.9,0.6c0.5,0.6,0.5,1.3,0.5,1.9c0,0.3-0.2,0.8-0.3,1.1
				c-0.2,0.3-0.3,0.6-0.6,1c-0.2,0.3-0.5,0.6-0.8,1l-2.4,3.1h3.1l-0.2,1.5h-5V400.6z"/>
			<path class="st3" d="M351.5,400.6l0.3-2.4H349l0.2-1.5l3.4-6.1h1.9l-0.8,6.3h1l-0.2,1.3h-1l-0.3,2.4H351.5z M350.4,396.7h1.6
				l0.5-4.4L350.4,396.7z"/>
			<path class="st3" d="M378.6,400.6l0.2-1.3l2.9-3.9l0.6-0.8c0.2-0.3,0.3-0.5,0.5-0.8c0.2-0.3,0.2-0.6,0.3-1c0-0.3,0-0.6-0.2-0.8
				c-0.2-0.2-0.3-0.3-0.6-0.3c-0.2,0-0.5,0-0.6,0.2s-0.3,0.3-0.3,0.6c-0.2,0.3-0.2,0.5-0.2,0.8v0.5h-1.8v-0.5c0-0.5,0.2-1.1,0.5-1.6
				c0.2-0.5,0.6-0.8,1-1.1c0.5-0.3,1-0.3,1.6-0.3s1.5,0.2,1.9,0.6c0.5,0.6,0.6,1.3,0.5,1.9c0,0.3-0.2,0.8-0.3,1.1
				c-0.2,0.3-0.3,0.6-0.6,1c-0.2,0.3-0.5,0.6-0.8,1l-2.4,3.1h3.1l-0.2,1.5L378.6,400.6z"/>
			<path class="st3" d="M388.6,400.7c-0.5,0-1.1-0.2-1.5-0.3c-0.3-0.3-0.6-0.6-0.6-1.1c-0.2-0.5-0.2-1.1,0-1.6h1.6c0,0.3,0,0.6,0,1
				c0,0.2,0,0.5,0.2,0.6s0.3,0.2,0.6,0.2c0.3,0,0.5-0.2,0.6-0.3c0.2-0.2,0.3-0.5,0.3-0.8c0.2-0.3,0.2-0.8,0.2-1.1s0-0.6,0-1
				c0-0.2,0-0.5-0.2-0.6c-0.2-0.2-0.3-0.3-0.6-0.3c-0.2,0-0.5,0.2-0.6,0.3c-0.2,0.2-0.3,0.3-0.5,0.6h-1.5l0.8-5.6h4.5l-0.2,1.6h-3.1
				l-0.3,2.4c0.2-0.2,0.3-0.3,0.6-0.3c0.3-0.2,0.5-0.2,0.8-0.2c0.5,0,1,0,1.3,0.3c0.3,0.3,0.5,0.6,0.6,1.1c0.2,0.5,0.2,1.1,0,1.8
				c0,0.5-0.2,1-0.3,1.5s-0.3,0.8-0.5,1.1c-0.2,0.3-0.5,0.6-1,0.8C389.6,400.7,389.1,400.7,388.6,400.7z"/>
			<path class="st3" d="M152.1,423.8l0.2-1.3l2.9-3.9c0.2-0.3,0.5-0.5,0.6-0.8c0.2-0.3,0.3-0.5,0.5-0.8c0.2-0.3,0.2-0.6,0.3-1
				c0-0.3,0-0.6-0.2-0.8c-0.2-0.2-0.3-0.3-0.6-0.3c-0.2,0-0.5,0-0.6,0.2c-0.2,0.2-0.3,0.3-0.3,0.6c-0.2,0.3-0.2,0.5-0.2,0.8v0.5
				h-1.8v-0.5c0-0.5,0.2-1.1,0.5-1.6c0.2-0.5,0.6-0.8,1-1.1c0.5-0.3,1-0.5,1.6-0.3c0.6,0,1.5,0.2,1.9,0.6c0.5,0.6,0.5,1.3,0.5,1.9
				c0,0.3-0.2,0.8-0.3,1.1c-0.2,0.3-0.3,0.6-0.6,1c-0.2,0.3-0.5,0.6-0.8,1l-2.4,3.1h3.1l-0.2,1.5L152.1,423.8z"/>
			<path class="st3" d="M162.2,423.9c-0.5,0-1-0.2-1.5-0.5c-0.3-0.3-0.6-0.6-0.6-1.1c-0.2-0.5-0.2-1.1,0-1.6l0.5-3.5
				c0-0.6,0.2-1.1,0.5-1.8c0.2-0.5,0.5-1,1-1.3c0.5-0.3,1.1-0.5,1.6-0.5c0.5,0,1,0,1.5,0.3c0.3,0.2,0.6,0.5,0.6,0.8
				c0.2,0.5,0.2,1,0.2,1.5l0,0l0,0h-1.6c0-0.3,0-0.6,0-1c-0.2-0.2-0.3-0.3-0.6-0.3c-0.2,0-0.3,0-0.5,0.2c-0.2,0.2-0.3,0.3-0.3,0.6
				c-0.2,0.3-0.2,0.8-0.2,1.3l-0.2,1.1c0.2-0.2,0.3-0.3,0.6-0.5c0.3-0.2,0.5-0.2,0.8-0.2c0.8-0.2,1.6,0.5,1.8,1.3l0,0
				c0,0.5,0,1,0,1.5c0,0.6-0.2,1.1-0.5,1.8c-0.2,0.5-0.5,1-1,1.3C163.3,423.8,162.9,423.9,162.2,423.9z M162.4,422.6
				c0.2,0,0.5,0,0.6-0.2c0.2-0.2,0.3-0.3,0.3-0.6c0.2-0.3,0.2-0.6,0.2-1s0-0.6,0-1c0-0.2,0-0.5-0.2-0.6s-0.3-0.3-0.6-0.3
				c-0.2,0-0.3,0-0.5,0s-0.2,0.2-0.3,0.2c-0.2,0-0.2,0.2-0.2,0.3l-0.2,1.6c0,0.3,0,0.5,0,0.8c0,0.2,0.2,0.5,0.2,0.6
				C162.1,422.5,162.2,422.6,162.4,422.6z"/>
			<path class="st3" d="M190.6,423.8l0.2-1.3l2.9-3.9c0.2-0.3,0.5-0.5,0.6-0.8c0.2-0.3,0.3-0.5,0.5-0.8c0.2-0.3,0.2-0.6,0.3-1
				c0-0.3,0-0.6-0.2-0.8s-0.3-0.3-0.6-0.3c-0.2,0-0.5,0-0.6,0.2c-0.2,0.2-0.3,0.3-0.3,0.6c-0.2,0.3-0.2,0.5-0.2,0.8v0.5h-1.8v-0.5
				c0-0.5,0.2-1.1,0.5-1.6c0.2-0.5,0.6-0.8,1-1.1c0.5-0.3,1-0.5,1.6-0.3c0.6,0,1.5,0.2,1.9,0.6c0.5,0.6,0.5,1.3,0.5,1.9
				c0,0.3-0.2,0.8-0.3,1.1c-0.2,0.3-0.3,0.6-0.6,1c-0.2,0.3-0.5,0.6-0.8,1l-2.4,3.1h3.1l-0.2,1.5L190.6,423.8z"/>
			<path class="st3" d="M198.5,423.8l2.9-8.7h-2.6l0.2-1.3h4.4l-0.2,1.1l-3.1,9h-1.6V423.8z"/>
			<path class="st3" d="M226.7,423.8l0.2-1.3l2.9-3.9c0.2-0.3,0.5-0.5,0.6-0.8c0.2-0.3,0.3-0.5,0.5-0.8c0.2-0.3,0.2-0.6,0.3-1
				c0-0.3,0-0.6-0.2-0.8c-0.2-0.2-0.3-0.3-0.6-0.3c-0.2,0-0.5,0-0.6,0.2c-0.2,0.2-0.3,0.3-0.3,0.6c-0.2,0.3-0.2,0.5-0.2,0.8v0.5
				h-1.8v-0.5c0-0.5,0.2-1.1,0.5-1.6c0.2-0.5,0.6-0.8,1-1.1c0.5-0.3,1-0.5,1.6-0.3c0.6,0,1.5,0.2,1.9,0.6c0.5,0.6,0.5,1.3,0.5,1.9
				c0,0.3-0.2,0.6-0.3,1.1c-0.2,0.3-0.3,0.6-0.6,1c-0.2,0.3-0.5,0.6-0.8,1l-2.4,3.1h3.1l-0.2,1.5L226.7,423.8z"/>
			<path class="st3" d="M236.7,423.9c-0.5,0-1.1-0.2-1.5-0.3c-0.3-0.3-0.6-0.6-0.6-1.1c-0.2-0.5-0.2-1.1,0-1.6
				c0-0.3,0.2-0.5,0.2-0.8c0-0.2,0.2-0.5,0.3-0.6c0.2-0.2,0.3-0.3,0.5-0.5c0.2-0.2,0.3-0.3,0.5-0.3c-0.3-0.2-0.5-0.5-0.6-0.8
				c-0.2-0.5-0.2-1-0.2-1.3c0-0.5,0.2-1,0.5-1.5c0.2-0.3,0.5-0.6,1-1c0.5-0.2,1-0.3,1.5-0.3c0.5,0,1,0.2,1.3,0.3s0.6,0.5,0.6,1
				c0.2,0.5,0.2,1,0.2,1.5s-0.2,1-0.5,1.5c-0.2,0.3-0.5,0.6-0.8,0.8c0.2,0.2,0.3,0.2,0.5,0.3c0.2,0.2,0.3,0.3,0.3,0.5
				c0.2,0.2,0.2,0.5,0.2,0.6c0,0.3,0,0.5,0,0.8c0,0.5-0.2,1.1-0.5,1.6c-0.2,0.5-0.6,0.8-1,1.1C237.8,423.8,237.3,423.9,236.7,423.9z
				 M236.8,422.6c0.2,0,0.5,0,0.6-0.3c0.2-0.2,0.3-0.3,0.3-0.6c0-0.3,0.2-0.5,0.2-0.8s0-0.5,0-0.8c0-0.2-0.2-0.5-0.2-0.6
				c-0.2-0.2-0.3-0.3-0.6-0.3c-0.2,0-0.5,0.2-0.6,0.3c-0.2,0.2-0.3,0.3-0.3,0.6c-0.2,0.3-0.2,0.5-0.2,0.8s0,0.5,0,0.8
				c0,0.2,0,0.5,0.2,0.6C236.5,422.6,236.7,422.6,236.8,422.6z M237.5,417.8c0.2,0,0.3,0,0.5-0.2c0.2-0.2,0.3-0.3,0.3-0.6
				c0.2-0.3,0.2-0.5,0.2-0.8s0-0.6,0-1c-0.2-0.2-0.3-0.3-0.6-0.3c-0.3,0-0.5,0.2-0.6,0.3c-0.2,0.3-0.3,0.6-0.3,1s0,0.5,0,0.8
				c0,0.2,0,0.5,0.2,0.6C237.1,417.8,237.3,417.8,237.5,417.8L237.5,417.8z"/>
			<path class="st3" d="M263.9,423.8l0.2-1.3l2.9-3.9l0.6-0.8c0.2-0.3,0.3-0.5,0.5-0.8c0.2-0.3,0.2-0.6,0.3-1c0-0.3,0-0.6-0.2-0.8
				s-0.3-0.3-0.6-0.3c-0.2,0-0.5,0-0.6,0.2c-0.2,0.2-0.3,0.3-0.3,0.6c-0.2,0.3-0.2,0.5-0.2,0.8v0.5h-1.8v-0.5c0-0.5,0.2-1.1,0.5-1.6
				c0.2-0.5,0.6-0.8,1-1.1c0.5-0.3,1-0.5,1.6-0.3c0.6,0,1.5,0.2,1.9,0.6c0.5,0.6,0.5,1.3,0.5,1.9c0,0.3-0.2,0.8-0.3,1.1
				c-0.2,0.3-0.3,0.6-0.6,1c-0.2,0.3-0.5,0.6-0.8,1l-2.4,3.1h3.1l-0.2,1.5L263.9,423.8z"/>
			<path class="st3" d="M274,423.9c-0.5,0-1,0-1.5-0.3c-0.3-0.2-0.6-0.5-0.6-0.8c-0.2-0.5-0.2-1-0.2-1.5v-0.2h1.6c0,0.3,0,0.6,0,1
				c0.2,0.2,0.3,0.3,0.6,0.3c0.2,0,0.3,0,0.5-0.2c0.2-0.2,0.3-0.5,0.3-0.6c0.2-0.3,0.2-0.8,0.2-1.1l0.2-1.1
				c-0.2,0.2-0.3,0.3-0.6,0.5c-0.3,0.2-0.5,0.2-0.8,0.2c-0.5,0-1-0.2-1.3-0.3c-0.3-0.3-0.5-0.6-0.6-1.1c-0.2-0.5-0.2-1,0-1.5
				c0-0.6,0.2-1.1,0.5-1.8c0.2-0.5,0.5-0.8,1-1.1c0.5-0.3,1-0.5,1.6-0.5c0.5,0,1,0.2,1.5,0.5c0.3,0.3,0.6,0.6,0.6,1.1
				c0.2,0.5,0.2,1.1,0,1.6l-0.5,3.5c0,0.6-0.2,1.3-0.5,1.8c-0.2,0.5-0.5,1-1,1.3C275.2,423.8,274.5,423.9,274,423.9z M274.7,418.6
				c0.2,0,0.5,0,0.6-0.2c0.2-0.2,0.3-0.2,0.3-0.3l0.2-1.6c0-0.3,0-0.5,0-0.8c0-0.2,0-0.5-0.2-0.6s-0.3-0.2-0.5-0.2
				c-0.2,0-0.5,0-0.6,0.2s-0.3,0.3-0.3,0.6c-0.2,0.3-0.2,0.6-0.2,1s0,0.6,0,1c0,0.2,0,0.5,0.2,0.6
				C274.2,418.6,274.4,418.6,274.7,418.6L274.7,418.6z"/>
			<path class="st3" d="M303.8,423.9c-0.5,0-1-0.2-1.5-0.3c-0.3-0.2-0.6-0.6-0.6-1c-0.2-0.5-0.2-1,0-1.5v-0.3h1.8v0.2v0.2
				c0,0.3,0,0.5,0,0.8c0,0.2,0.2,0.3,0.2,0.5c0.2,0.2,0.3,0.2,0.5,0.2c0.2,0,0.5,0,0.6-0.2c0.2-0.2,0.3-0.3,0.3-0.5
				c0-0.3,0.2-0.6,0.2-0.8c0-0.5,0-0.8-0.2-1.1c-0.2-0.3-0.5-0.5-1-0.5h-0.3l0.2-1.5h0.3c0.3,0,0.8-0.2,1-0.3
				c0.2-0.3,0.3-0.8,0.3-1.1s0-0.6,0-1c-0.2-0.2-0.3-0.3-0.6-0.3c-0.3,0-0.6,0.2-0.8,0.3c-0.2,0.3-0.3,0.6-0.3,1v0.2v0.2h-1.8v-0.5
				c0-0.5,0.2-1,0.5-1.5c0.2-0.3,0.6-0.6,1-1c0.5-0.2,1-0.3,1.5-0.3s1,0.2,1.5,0.3c0.3,0.2,0.6,0.5,0.8,1c0.3,1,0.2,2.1-0.5,2.9
				c-0.3,0.3-0.6,0.6-1.1,0.8c0.3,0,0.5,0.2,0.6,0.5c0.2,0.2,0.3,0.5,0.3,0.8c0,0.3,0,0.8,0,1.1c0,0.5-0.2,1.1-0.5,1.6
				c-0.2,0.5-0.5,0.8-1,1.1C305,423.8,304.3,423.9,303.8,423.9z"/>
			<path class="st3" d="M311.4,423.9c-0.5,0-1-0.2-1.5-0.3c-0.3-0.3-0.6-0.6-0.8-1c-0.2-0.5-0.2-1-0.2-1.5l0.5-4.5
				c0-0.5,0.2-1.1,0.5-1.6c0.2-0.5,0.6-0.8,1-1c0.5-0.3,1-0.3,1.5-0.3s1,0.2,1.5,0.3c0.3,0.2,0.6,0.6,0.8,1c0.2,0.5,0.2,1,0.2,1.6
				l-0.5,4.5c0,0.5-0.2,1.1-0.5,1.5c-0.2,0.5-0.6,0.8-1,1C312.5,423.9,312.1,423.9,311.4,423.9z M311.6,422.5c0.2,0,0.5,0,0.6-0.2
				c0.2-0.2,0.3-0.3,0.3-0.6c0-0.2,0.2-0.5,0.2-0.6l0.5-4.4c0-0.2,0-0.5,0-0.6s0-0.5-0.2-0.6c-0.2-0.2-0.3-0.3-0.5-0.2
				c-0.2,0-0.5,0-0.6,0.2c-0.2,0.2-0.3,0.3-0.3,0.6c0,0.2-0.2,0.5-0.2,0.6l-0.5,4.4c0,0.2,0,0.5,0,0.6s0,0.3,0.2,0.6
				C311.3,422.5,311.4,422.5,311.6,422.5L311.6,422.5z"/>
			<path class="st3" d="M341.2,423.9c-0.5,0-1-0.2-1.5-0.3c-0.3-0.2-0.6-0.6-0.6-1c-0.2-0.5-0.2-1,0-1.5v-0.3h1.8v0.2v0.2
				c0,0.3,0,0.5,0,0.8c0,0.2,0.2,0.3,0.2,0.5c0.2,0.2,0.3,0.2,0.5,0.2c0.2,0,0.5,0,0.6-0.2c0.2-0.2,0.3-0.3,0.3-0.5
				c0.2-0.3,0.2-0.6,0.2-0.8c0-0.5,0-0.8-0.2-1.1c-0.2-0.3-0.5-0.5-0.8-0.5h-0.3l0.2-1.5h0.3c0.3,0,0.8-0.2,1-0.3
				c0.2-0.3,0.3-0.8,0.3-1.1s0-0.6,0-1c-0.2-0.2-0.3-0.3-0.6-0.3c-0.3,0-0.6,0.2-0.8,0.3c-0.2,0.3-0.3,0.6-0.3,1v0.2v0.2h-1.8v-0.5
				c0-0.5,0.2-1,0.5-1.5c0.2-0.3,0.6-0.6,1-1c0.5-0.2,1-0.3,1.5-0.3s1,0.2,1.5,0.3c0.3,0.2,0.6,0.5,0.8,1c0.2,0.5,0.2,1,0.2,1.5
				s-0.2,1-0.5,1.5c-0.3,0.3-0.6,0.6-1,0.8c0.3,0,0.5,0.2,0.6,0.5c0.2,0.2,0.3,0.5,0.3,0.8c0,0.3,0,0.8,0,1.1c0,0.5-0.2,1.1-0.5,1.6
				c-0.2,0.5-0.5,0.8-1,1.1C342.2,423.9,341.7,423.9,341.2,423.9z"/>
			<path class="st3" d="M347.3,423.8l1-8.2c-0.2,0-0.2,0.2-0.3,0.2l-0.5,0.2L347,416l-0.3,0.2l0.2-1.3c0.2,0,0.3-0.2,0.5-0.2
				c0.2,0,0.3-0.2,0.6-0.3c0.2-0.2,0.3-0.2,0.6-0.3c0.2-0.2,0.3-0.2,0.5-0.3h1.3l-1.1,10H347.3z"/>
			<path class="st3" d="M161.9,313.6l0.3-2.4c0.5,0,0.8,0,1.3-0.2c0.3,0,0.6-0.2,0.8-0.3c0.2-0.2,0.3-0.5,0.5-0.8
				c0.2-0.5,0.2-0.8,0.3-1.3l1.8-15h3.5l-1.8,15c-0.2,1-0.3,1.8-0.6,2.7c-0.3,0.6-0.8,1.3-1.5,1.6c-0.8,0.3-1.8,0.5-2.7,0.5
				L161.9,313.6z"/>
			<path class="st3" d="M172.4,313.1l6.1-19.3h3.7l1.6,19.3h-3.2l-0.2-4.5H177l-1.3,4.5H172.4z M177.5,306.3h2.6l-0.3-8.1
				L177.5,306.3z"/>
			<path class="st3" d="M188,313.1l2.3-19.3h2.4l3.4,11.1l1.3-11.1h2.9l-2.3,19.3h-2.4l-3.4-11.6l-1.3,11.6H188z"/>
			<path class="st3" d="M208.8,313.2c-1.1,0-2.3-0.2-3.2-0.8c-0.8-0.5-1.3-1.3-1.5-2.3c-0.2-1.1-0.2-2.3,0-3.5l1.6-13.1h3.4
				l-1.6,13.5c0,0.6-0.2,1.1,0,1.8c0,0.5,0.2,1,0.5,1.3c0.3,0.3,0.8,0.5,1.3,0.5c0.5,0,1-0.2,1.5-0.5c0.3-0.3,0.6-0.8,0.6-1.3
				c0.2-0.5,0.3-1.1,0.3-1.8l1.6-13.5h3.4l-1.6,13.1c-0.2,1.1-0.5,2.4-0.8,3.5c-0.3,1-1,1.8-1.9,2.3
				C211.2,313.1,209.9,313.4,208.8,313.2z"/>
			<path class="st3" d="M218.3,313.1l6.1-19.3h3.7l1.6,19.3h-3.2l-0.2-4.5H223l-1.3,4.5H218.3z M223.6,306.3h2.6l-0.3-8.1
				L223.6,306.3z"/>
			<path class="st3" d="M234.1,313.1l2.3-19.3h4.7c1.1,0,2.3,0.2,3.2,0.5c0.8,0.3,1.5,0.8,1.9,1.6c0.5,1,0.5,2.1,0.3,3.1
				c0,0.6-0.2,1.5-0.5,2.1c-0.2,0.6-0.5,1.1-1,1.6c-0.5,0.5-1,0.8-1.6,1l1.6,9.5h-3.5l-1.3-8.9h-1.6l-1,8.9L234.1,313.1z M238.9,302
				h1.1c0.6,0,1.1,0,1.6-0.3c0.5-0.2,0.8-0.5,1-1c0.3-0.5,0.5-1.1,0.5-1.6c0.2-0.8,0-1.5-0.3-2.3c-0.3-0.5-1-0.6-1.9-0.6h-1.3
				L238.9,302z"/>
			<path class="st3" d="M252.3,313.1l0.8-7.4l-2.6-11.9h3.2l1.5,7.7l3.2-7.7h3.2l-5.3,11.9l-0.8,7.4H252.3z"/>
			<line class="st2" x1="276.1" y1="313.6" x2="409.4" y2="313.6"/>
		</g>
		<g id="freepik--Character--inject-2">
			<path class="st5" d="M313,340.9c0,0-5,7.1-7.1,9c-2.1,2.1-7.6,6.1-7.3,7.6c0.5,1.5,5,2.3,8.9,1.8c3.9-0.5,10-3.4,10-3.4
				s6.3-3.2,9.3-4.8c3.1-1.6,3.2-2.7,2.6-5.3c-0.6-2.1-1.6-4.2-2.7-6C326.9,340,315.4,339.3,313,340.9z"/>
			<path class="st5" d="M327,351.3c2.3-1.1,2.9-2.1,2.9-3.5c-1.9,0.5-3.9,1.1-5.5,2.1c-2.6,1.8-8.9,6.3-15,7.9
				c-3.5,0.8-7.1,0.6-10.5-0.6c0,0.2-0.2,0.3,0,0.6c0.5,1.5,5,2.3,8.9,1.8c3.9-0.5,10-3.4,10-3.4S324,352.9,327,351.3z"/>
			<path class="st6" d="M304.6,258.6c0,0-20.5,4-23.5,12.1c-3.1,8.1,31.4,67.7,31.4,67.7l-1.9,2.6l1.1,1.9c0,0,12.4,2.9,14.2,1.6
				c1.9-1.1,2.6-1.6,2.6-2.4c0-0.6-3.4-12.4-3.4-12.4l-13.4-47.5h22.7c0,0,16.4-8.1,18.5-11.6c2.1-3.5-2.1-10.2-6.1-11.4
				c-4-1.1-30.1-3.1-30.9-2.9C315.6,256.7,304.6,258.6,304.6,258.6z"/>
			<path class="st5" d="M328.7,342.2c0,0-6.4,8.4-10.5,11c-4,2.6-8.5,5-6.9,6.6c1.6,1.8,10,1.6,14.5,0.6c4.5-1,11.6-3.4,12.6-4.7
				s2.1-7.4,2.1-7.4S330.6,343.4,328.7,342.2z"/>
			<path class="st5" d="M338.3,355.8c0.3-0.6,0.6-1.5,0.8-2.3c-2.6,1-13.5,4.7-18.7,5.3c-3.1,0.3-6.3,0.2-9.3-0.6
				c-0.3,0.5-0.3,1.1,0,1.6c1.6,1.6,10,1.6,14.5,0.6C330.1,359.5,337.5,357.2,338.3,355.8z"/>
			<path class="st6" d="M345.1,255.7c0,0-17.4,12.6-17.4,16.4c0,3.9,1.6,34,1.6,34l-0.6,32.5c-0.8,0.6-1.5,1.5-1.9,2.4
				c-0.2,0.6-0.6,3.5-0.6,3.5c2.1,1.1,4.4,2.1,6.6,2.9c2.6,0.8,5.2,1.1,7.9,1c0,0,2.1-7.9,2.1-8.9v-3.5l9.7-34.6l2.4-18.7
				c0,0,17.4,0.2,22.6-1c5.2-1.1,8.4-1.6,9.5-7.1c1.1-5.5-1.5-14-1.5-14S357.8,247.7,345.1,255.7z"/>
			<path class="st5" d="M350.7,172.1l-11.4,4.4l-10,55.3l6.4,23.2h18.9l3.4-6.6c0,0-0.2-42.2,0.2-44s7.4-26.9,7.4-26.9L350.7,172.1z
				"/>
			<path class="st2" d="M348,196.9c0,0-1.6,13.1-2.3,25.5"/>
			<path class="st2" d="M351,201.9c0,0.6-0.5,1.3-1.3,1.3c-0.6,0-1.3-0.5-1.3-1.3c0-0.6,0.5-1.3,1.3-1.3
				C350.4,200.6,351,201.1,351,201.9C351,201.7,351,201.9,351,201.9z"/>
			<path class="st2" d="M350.1,216.1c0,0.6-0.5,1.3-1.3,1.3c-0.6,0-1.3-0.5-1.3-1.3c0-0.6,0.5-1.3,1.3-1.3
				C349.4,214.8,350.1,215.4,350.1,216.1L350.1,216.1z"/>
			<path class="st2" d="M348.3,232.4c0,0.6-0.5,1.3-1.3,1.3c-0.6,0-1.3-0.5-1.3-1.3c0-0.6,0.5-1.3,1.3-1.3l0,0
				C347.8,231.2,348.3,231.7,348.3,232.4L348.3,232.4z"/>
			<path class="st2" d="M345.4,225.6c0,0-0.3,5.5-0.5,11.1"/>
			<path class="st7" d="M364.1,173.5c0,0-4.4,15-7.4,26.4c-3.1,11.4-1.6,54.1-1.6,54.1s7.9,0.8,11.4,2.4c3.5,1.6,5.2,5.6,11,7.7
				c3.7,1.3,7.7,1.8,11.6,1.5c0,0-4.4-21.9-4.8-26.3c-0.3-4.4,1.9-52.5,0.5-54.1C383.3,183.5,364.1,173.5,364.1,173.5z"/>
			<path class="st2" d="M376.3,252.7c1.1,0.5,2.3,1,3.2,1.8"/>
			<path class="st2" d="M360.7,251.5c4.2-1,8.7-0.8,12.9,0.2"/>
			<path class="st2" d="M359.7,249.8c0,0,1.1-1.1,5.2-1"/>
			<path class="st7" d="M342.5,172.1c0,0-24.3,14.5-24.8,15.3c-0.5,1-13.4,41.9-13.4,41.9l28,1.1
				C332.4,230.4,339.4,181.1,342.5,172.1z"/>
			<line class="st2" x1="321.9" y1="202.2" x2="322.5" y2="199.5"/>
			<line class="st2" x1="317.2" y1="228.2" x2="321.4" y2="205.6"/>
			<path class="st5" d="M342.5,172.1l-5.3,17.9l10.3-6.6l12.4,8.1c0,0,4.5-15.3,4.2-17.7c-0.5-1.9-1.3-3.5-2.4-5.2L342.5,172.1z"/>
			<path class="st9" d="M342.7,127.1c0,0-6.9,10.5-6.9,12.6c-0.2,2.3-0.6,4.7-1.6,6.8c-0.5,1-5.3,2.9-5,5c0.3,1.5,1.1,2.7,2.1,3.9
				c0,0,1.5,14,3.5,13.7c2.3-0.2,4.4,0,6.6,0.2c0,0,6.3,24,6.9,23.2c0.6-0.8,13.5-21.1,13.5-21.1s1.1-8.7,1.8-9.7s9.2-7.6,10.6-11.6
				c1.5-4,1.1-14.5-1.3-18c-2.4-3.5-13.5-8.9-19.2-8.4C348,123.8,343.5,124.9,342.7,127.1z"/>
			<path class="st6" d="M353.8,123.3c-5.6,0.5-10.3,1.6-11.1,3.9c0,0-1,2.3,2.3,2.3c3.2,0,11.1-0.3,11.1,3.1c0,3.4-5.6,4.8-5.5,6.4
				c0.2,1.8,3.7,5.8,3.7,5.8s-1.5,4,0.3,4.5c1.8,0.5,1.8-1.6,4-1.1c2.1,0.6,4,5.8,3.1,7.4c-1.1,1.5-2.4,2.9-4,4
				c1.9,1,3.7,1.8,5.8,2.4c0-0.2,0.2-0.3,0.2-0.5c0.5-1,9.2-7.6,10.6-11.6c1.5-4,1.1-14.5-1.3-18
				C370.4,128.1,359.3,122.8,353.8,123.3z"/>
			<path class="st3" d="M334.6,155c2.1,0.3,4.2-0.3,5.8-1.8c0,0,1.9,3.9-1.3,5.2C335.9,159.5,334.6,155,334.6,155z"/>
			<path class="st10" d="M338.3,139.2c0,0,2.1-1.9,3.7,0.8"/>
			<path class="st2" d="M341.1,145.7c-0.8,2.4-2.6,4.2-3.9,3.7c-1.3-0.5-1.8-2.7-1.1-5.3c0.6-2.6,2.6-4.2,3.9-3.7
				C341.2,140.8,341.9,143.3,341.1,145.7z"/>
			<line class="st2" x1="336.1" y1="144.2" x2="334.1" y2="143.1"/>
			<line class="st2" x1="341.5" y1="144.5" x2="356" y2="148.3"/>
			<path class="st6" d="M334.8,168.9c0,0,6.1-1.5,6.8-1.5s9.3-3.7,9.3-3.7l-8.4,8.4l-1.1-3.2H334.8z"/>
			<path class="st7" d="M384.7,185.3c0,0,3.1,0,5.3,6.3c2.3,6.3,13.7,45.8,12.7,48.2c-1,2.4-13.7,2.7-15.6,0.2
				c-1.5-2.4-2.7-5-3.7-7.7l-2.3-25.3"/>
			<path class="st9" d="M379.6,219.1l-3.4-3.1c0,0-0.2-11.8-0.8-12.4c-0.5-0.8-7.7-3.7-8.2-3.7c-0.5,0-3.9,3.4-3.9,3.4
				s-1,4.2-1.1,5.3s0,6,0,6s0.2,2.7,1.3,2.9c0.8,0.2,1.6,0.2,2.4,0.2c0.6,1.3,1.5,2.4,2.6,3.5c1,0.6,1.9,1.1,2.9,1.5l5.2,4.7
				L379.6,219.1z"/>
			<line class="st2" x1="363.5" y1="203.2" x2="372.3" y2="205.6"/>
			<line class="st2" x1="362.6" y1="207.4" x2="370.5" y2="210"/>
			<line class="st2" x1="362.3" y1="211.6" x2="369.6" y2="213.5"/>
			<polyline class="st2" points="365.9,217.5 366.5,215.9 364.7,215.4 			"/>
			<path class="st7" d="M401.3,231.9l-21.9-12.7l-7.9,12.4c0,0,16.1,15.8,18.2,17.4c2.1,1.6,6.4,2.3,8.4,1.6
				c1.9-0.6,5.6-5.5,5.6-10.2C403.7,237.7,402.9,234.6,401.3,231.9z"/>
			<polygon class="st11" points="349.1,262 365.5,253.6 343.6,252.5 			"/>
			<polygon class="st12" points="292.1,224.3 301.3,258.9 349.1,262 339.3,225.1 			"/>
			<path class="st5" d="M322.7,242.3c0,1.8-1.8,3.4-4.2,3.4s-4.2-1.5-4.2-3.4s1.8-3.4,4.2-3.4S322.7,240.6,322.7,242.3z"/>
			<path class="st9" d="M292.2,233.6c0,0-0.2,2.4,0.6,2.9c0.8,0.5,6,1.6,6.3,0.5s0.2-2.4-1-2.6C297.1,234.1,293.7,232.8,292.2,233.6
				z"/>
			<path class="st9" d="M292.9,236.5c0,0-0.2,2.9,0.6,3.4c0.8,0.5,4.2,0.6,4.8-0.2c0.5-1,0.8-1.9,0.8-2.9
				C299.2,236.9,294.3,237.5,292.9,236.5z"/>
			<path class="st9" d="M293.5,239.9c0.3,1,0.6,1.8,1.3,2.4c0.5,0.5,3.7,0.5,4.2-0.5c0.5-1-0.5-2.3-0.5-2.3
				C296.7,240.1,295.1,240.1,293.5,239.9z"/>
			<path class="st9" d="M294.8,242.3c0,0.8,0.6,1.5,1.5,1.6c1.5,0.5,3.2,0.5,3.4-0.3c0-0.6-0.3-1.3-0.6-1.8
				C297.6,242.3,296.1,242.5,294.8,242.3z"/>
		</g>
	</g>
</g>
</svg>
